<svg version="1.1" viewBox="0.0 0.0 210.0 177.0" fill="none" stroke="none" stroke-linecap="square" stroke-miterlimit="10" width="210" height="177" xmlns:xlink="http://www.w3.org/1999/xlink" xmlns="http://www.w3.org/2000/svg"><path fill="#ffffff" d="M0 0L210.0 0L210.0 177.0L0 177.0L0 0Z" fill-rule="nonzero"/><clipPath id="id_0"><path d="M0 0L210.0 0L210.0 177.0L0 177.0L0 0Z" clip-rule="nonzero"/></clipPath><path fill="#f5f5f5" clip-path="url(#id_0)" d="M0 56.0L210.0 56.0L210.0 80.0L0 80.0L0 56.0Z" fill-rule="nonzero"/><path fill="#f5f5f5" clip-path="url(#id_0)" d="M0 104.0L210.0 104.0L210.0 128.0L0 128.0L0 104.0Z" fill-rule="nonzero"/><path fill="#f5f5f5" clip-path="url(#id_0)" d="M0 152.0L210.0 152.0L210.0 176.0L0 176.0L0 152.0Z" fill-rule="nonzero"/><path stroke="#eeeeee" stroke-width="1.0" stroke-linecap="butt" clip-path="url(#id_0)" d="M0.5 32.5L44.5 32.5L44.5 56.5L0.5 56.5Z" fill-rule="nonzero"/><path fill="#3c4043" clip-path="url(#id_0)" d="M37.125 49.0L35.953125 49.0L35.953125 41.171875L33.578125 42.046875L33.578125 40.96875L36.9375 39.71875L37.125 39.71875L37.125 49.0Z" fill-rule="nonzero"/><path stroke="#eeeeee" stroke-width="1.0" stroke-linecap="butt" clip-path="url(#id_0)" d="M0.5 56.5L44.5 56.5L44.5 80.5L0.5 80.5Z" fill-rule="nonzero"/><path fill="#3c4043" clip-path="url(#id_0)" d="M39.328125 73.0L33.265625 73.0L33.265625 72.15625L36.46875 68.59375Q37.171875 67.796875 37.4375 67.296875Q37.71875 66.78125 37.71875 66.25Q37.71875 65.515625 37.28125 65.0625Q36.84375 64.59375 36.109375 64.59375Q35.234375 64.59375 34.75 65.09375Q34.265625 65.59375 34.265625 66.484375L33.09375 66.484375Q33.09375 65.203125 33.90625 64.421875Q34.734375 63.625 36.109375 63.625Q37.40625 63.625 38.15625 64.3125Q38.90625 64.984375 38.90625 66.109375Q38.90625 67.46875 37.15625 69.359375L34.6875 72.046875L39.328125 72.046875L39.328125 73.0Z" fill-rule="nonzero"/><path stroke="#eeeeee" stroke-width="1.0" stroke-linecap="butt" clip-path="url(#id_0)" d="M0.5 80.5L44.5 80.5L44.5 104.5L0.5 104.5Z" fill-rule="nonzero"/><path fill="#3c4043" clip-path="url(#id_0)" d="M34.96875 91.8125L35.859375 91.8125Q36.6875 91.796875 37.15625 91.375Q37.640625 90.9375 37.640625 90.21875Q37.640625 88.59375 36.015625 88.59375Q35.265625 88.59375 34.8125 89.03125Q34.359375 89.46875 34.359375 90.1875L33.171875 90.1875Q33.171875 89.078125 33.96875 88.359375Q34.78125 87.625 36.015625 87.625Q37.328125 87.625 38.0625 88.328125Q38.8125 89.015625 38.8125 90.25Q38.8125 90.84375 38.421875 91.421875Q38.03125 91.984375 37.359375 92.265625Q38.125 92.5 38.53125 93.0625Q38.953125 93.609375 38.953125 94.421875Q38.953125 95.671875 38.140625 96.40625Q37.328125 97.125 36.03125 97.125Q34.734375 97.125 33.90625 96.421875Q33.09375 95.71875 33.09375 94.5625L34.28125 94.5625Q34.28125 95.296875 34.75 95.734375Q35.234375 96.171875 36.03125 96.171875Q36.875 96.171875 37.328125 95.734375Q37.78125 95.28125 37.78125 94.453125Q37.78125 93.640625 37.28125 93.21875Q36.796875 92.78125 35.859375 92.765625L34.96875 92.765625L34.96875 91.8125Z" fill-rule="nonzero"/><path stroke="#eeeeee" stroke-width="1.0" stroke-linecap="butt" clip-path="url(#id_0)" d="M0.5 104.5L44.5 104.5L44.5 128.5L0.5 128.5Z" fill-rule="nonzero"/><path fill="#3c4043" clip-path="url(#id_0)" d="M38.21875 117.890625L39.515625 117.890625L39.515625 118.859375L38.21875 118.859375L38.21875 121.0L37.046875 121.0L37.046875 118.859375L32.84375 118.859375L32.84375 118.15625L36.96875 111.75L38.21875 111.75L38.21875 117.890625ZM34.171875 117.890625L37.046875 117.890625L37.046875 113.359375L36.90625 113.625L34.171875 117.890625Z" fill-rule="nonzero"/><path stroke="#eeeeee" stroke-width="1.0" stroke-linecap="butt" clip-path="url(#id_0)" d="M0.5 128.5L44.5 128.5L44.5 152.5L0.5 152.5Z" fill-rule="nonzero"/><path fill="#3c4043" clip-path="url(#id_0)" d="M33.8125 140.35938L34.28125 135.75L39.015625 135.75L39.015625 136.84375L35.28125 136.84375L35.0 139.35938Q35.671875 138.96875 36.53125 138.96875Q37.796875 138.96875 38.53125 139.79688Q39.28125 140.625 39.28125 142.04688Q39.28125 143.48438 38.515625 144.3125Q37.75 145.125 36.359375 145.125Q35.140625 145.125 34.359375 144.45312Q33.578125 143.76562 33.484375 142.5625L34.59375 142.5625Q34.703125 143.35938 35.15625 143.76562Q35.609375 144.17188 36.359375 144.17188Q37.171875 144.17188 37.640625 143.60938Q38.109375 143.04688 38.109375 142.0625Q38.109375 141.14062 37.609375 140.57812Q37.109375 140.01562 36.265625 140.01562Q35.5 140.01562 35.0625 140.35938L34.75 140.60938L33.8125 140.35938Z" fill-rule="nonzero"/><path stroke="#eeeeee" stroke-width="1.0" stroke-linecap="butt" clip-path="url(#id_0)" d="M0.5 152.5L44.5 152.5L44.5 176.5L0.5 176.5Z" fill-rule="nonzero"/><path fill="#3c4043" clip-path="url(#id_0)" d="M37.875 159.75L37.875 160.75L37.65625 160.75Q36.296875 160.76562 35.484375 161.5625Q34.671875 162.34375 34.53125 163.78125Q35.265625 162.9375 36.53125 162.9375Q37.734375 162.9375 38.453125 163.79688Q39.171875 164.64062 39.171875 165.98438Q39.171875 167.40625 38.390625 168.26562Q37.625 169.125 36.3125 169.125Q34.984375 169.125 34.15625 168.10938Q33.34375 167.09375 33.34375 165.48438L33.34375 165.03125Q33.34375 162.48438 34.421875 161.14062Q35.515625 159.78125 37.671875 159.75L37.875 159.75ZM36.328125 163.92188Q35.734375 163.92188 35.21875 164.28125Q34.71875 164.64062 34.515625 165.1875L34.515625 165.60938Q34.515625 166.76562 35.03125 167.46875Q35.546875 168.15625 36.3125 168.15625Q37.109375 168.15625 37.5625 167.57812Q38.015625 166.98438 38.015625 166.04688Q38.015625 165.09375 37.546875 164.51562Q37.09375 163.92188 36.328125 163.92188Z" fill-rule="nonzero"/><path stroke="#eeeeee" stroke-width="1.0" stroke-linecap="butt" clip-path="url(#id_0)" d="M44.5 32.5L210.5 32.5L210.5 56.5L44.5 56.5Z" fill-rule="nonzero"/><path fill="#3c4043" clip-path="url(#id_0)" d="M57.390625 47.78125Q56.921875 48.453125 56.078125 48.796875Q55.25 49.125 54.125 49.125Q53.0 49.125 52.125 48.59375Q51.25 48.0625 50.765625 47.09375Q50.28125 46.109375 50.28125 44.828125L50.28125 44.015625Q50.28125 41.921875 51.25 40.78125Q52.21875 39.625 53.984375 39.625Q55.4375 39.625 56.3125 40.375Q57.203125 41.109375 57.390625 42.46875L56.171875 42.46875Q55.828125 40.640625 54.0 40.640625Q52.765625 40.640625 52.125 41.5Q51.5 42.359375 51.5 43.984375L51.5 44.734375Q51.5 46.296875 52.203125 47.21875Q52.921875 48.125 54.140625 48.125Q54.8125 48.125 55.328125 47.984375Q55.84375 47.828125 56.1875 47.46875L56.1875 45.390625L54.046875 45.390625L54.046875 44.390625L57.390625 44.390625L57.390625 47.78125ZM59.078125 45.5Q59.078125 44.5 59.46875 43.6875Q59.875 42.875 60.578125 42.4375Q61.28125 42.0 62.1875 42.0Q63.59375 42.0 64.453125 42.984375Q65.328125 43.953125 65.328125 45.5625L65.328125 45.640625Q65.328125 46.640625 64.9375 47.4375Q64.5625 48.234375 63.84375 48.6875Q63.140625 49.125 62.203125 49.125Q60.8125 49.125 59.9375 48.15625Q59.078125 47.1875 59.078125 45.578125L59.078125 45.5ZM60.265625 45.640625Q60.265625 46.78125 60.78125 47.484375Q61.3125 48.171875 62.203125 48.171875Q63.109375 48.171875 63.625 47.46875Q64.15625 46.765625 64.15625 45.5Q64.15625 44.375 63.609375 43.671875Q63.078125 42.96875 62.1875 42.96875Q61.328125 42.96875 60.796875 43.671875Q60.265625 44.359375 60.265625 45.640625ZM67.671875 49.0L66.484375 49.0L66.484375 42.125L67.671875 42.125L67.671875 49.0ZM66.390625 40.3125Q66.390625 40.03125 66.5625 39.828125Q66.75 39.625 67.09375 39.625Q67.4375 39.625 67.609375 39.828125Q67.78125 40.03125 67.78125 40.3125Q67.78125 40.59375 67.609375 40.78125Q67.4375 40.96875 67.09375 40.96875Q66.75 40.96875 66.5625 40.78125Q66.390625 40.59375 66.390625 40.3125ZM70.5 42.125L70.53125 43.0Q71.328125 42.0 72.59375 42.0Q74.765625 42.0 74.796875 44.46875L74.796875 49.0L73.609375 49.0L73.609375 44.453125Q73.609375 43.71875 73.265625 43.359375Q72.9375 43.0 72.234375 43.0Q71.671875 43.0 71.234375 43.3125Q70.796875 43.609375 70.5625 44.109375L70.5625 49.0L69.390625 49.0L69.390625 42.125L70.5 42.125ZM76.109375 45.515625Q76.109375 43.90625 76.84375 42.953125Q77.59375 42.0 78.8125 42.0Q80.078125 42.0 80.78125 42.890625L80.84375 42.125L81.90625 42.125L81.90625 48.828125Q81.90625 50.171875 81.109375 50.9375Q80.328125 51.703125 79.0 51.703125Q78.25 51.703125 77.53125 51.375Q76.828125 51.0625 76.453125 50.515625L77.0625 49.8125Q77.828125 50.75 78.921875 50.75Q79.765625 50.75 80.25 50.265625Q80.734375 49.78125 80.734375 48.90625L80.734375 48.3125Q80.03125 49.125 78.8125 49.125Q77.59375 49.125 76.84375 48.15625Q76.109375 47.1875 76.109375 45.515625ZM77.296875 45.640625Q77.296875 46.796875 77.765625 47.46875Q78.25 48.125 79.09375 48.125Q80.203125 48.125 80.734375 47.125L80.734375 43.984375Q80.1875 43.0 79.109375 43.0Q78.25 43.0 77.765625 43.671875Q77.296875 44.328125 77.296875 45.640625ZM90.390625 47.171875Q90.390625 46.703125 90.03125 46.4375Q89.671875 46.171875 88.78125 45.984375Q87.890625 45.796875 87.359375 45.53125Q86.84375 45.265625 86.59375 44.90625Q86.34375 44.53125 86.34375 44.015625Q86.34375 43.171875 87.046875 42.59375Q87.765625 42.0 88.875 42.0Q90.046875 42.0 90.765625 42.609375Q91.5 43.203125 91.5 44.15625L90.3125 44.15625Q90.3125 43.671875 89.90625 43.328125Q89.5 42.96875 88.875 42.96875Q88.234375 42.96875 87.875 43.25Q87.515625 43.53125 87.515625 43.984375Q87.515625 44.40625 87.84375 44.625Q88.1875 44.828125 89.0625 45.03125Q89.9375 45.234375 90.484375 45.515625Q91.03125 45.78125 91.296875 46.171875Q91.5625 46.546875 91.5625 47.09375Q91.5625 48.015625 90.828125 48.578125Q90.09375 49.125 88.921875 49.125Q88.09375 49.125 87.453125 48.84375Q86.828125 48.546875 86.46875 48.03125Q86.109375 47.5 86.109375 46.890625L87.28125 46.890625Q87.3125 47.46875 87.75 47.828125Q88.1875 48.171875 88.921875 48.171875Q89.578125 48.171875 89.984375 47.90625Q90.390625 47.625 90.390625 47.171875ZM94.984375 40.46875L94.984375 42.125L96.265625 42.125L96.265625 43.046875L94.984375 43.046875L94.984375 47.296875Q94.984375 47.71875 95.15625 47.921875Q95.328125 48.125 95.734375 48.125Q95.9375 48.125 96.296875 48.046875L96.296875 49.0Q95.828125 49.125 95.390625 49.125Q94.609375 49.125 94.203125 48.65625Q93.8125 48.171875 93.8125 47.296875L93.8125 43.046875L92.5625 43.046875L92.5625 42.125L93.8125 42.125L93.8125 40.46875L94.984375 40.46875ZM100.703125 43.1875Q100.4375 43.140625 100.125 43.140625Q98.96875 43.140625 98.5625 44.125L98.5625 49.0L97.390625 49.0L97.390625 42.125L98.53125 42.125L98.546875 42.921875Q99.125 42.0 100.1875 42.0Q100.53125 42.0 100.703125 42.09375L100.703125 43.1875ZM105.625 49.0Q105.53125 48.796875 105.46875 48.28125Q104.640625 49.125 103.515625 49.125Q102.5 49.125 101.84375 48.5625Q101.1875 47.984375 101.1875 47.09375Q101.1875 46.015625 102.0 45.421875Q102.828125 44.828125 104.296875 44.828125L105.4375 44.828125L105.4375 44.296875Q105.4375 43.6875 105.0625 43.328125Q104.703125 42.953125 103.984375 42.953125Q103.359375 42.953125 102.9375 43.265625Q102.515625 43.578125 102.515625 44.03125L101.328125 44.03125Q101.328125 43.515625 101.6875 43.046875Q102.0625 42.5625 102.6875 42.28125Q103.3125 42.0 104.0625 42.0Q105.25 42.0 105.921875 42.59375Q106.59375 43.1875 106.625 44.234375L106.625 47.390625Q106.625 48.34375 106.859375 48.890625L106.859375 49.0L105.625 49.0ZM103.6875 48.109375Q104.234375 48.109375 104.71875 47.828125Q105.21875 47.53125 105.4375 47.078125L105.4375 45.671875L104.53125 45.671875Q102.359375 45.671875 102.359375 46.9375Q102.359375 47.484375 102.734375 47.796875Q103.109375 48.109375 103.6875 48.109375ZM109.671875 49.0L108.484375 49.0L108.484375 42.125L109.671875 42.125L109.671875 49.0ZM108.390625 40.3125Q108.390625 40.03125 108.5625 39.828125Q108.75 39.625 109.09375 39.625Q109.4375 39.625 109.609375 39.828125Q109.78125 40.03125 109.78125 40.3125Q109.78125 40.59375 109.609375 40.78125Q109.4375 40.96875 109.09375 40.96875Q108.75 40.96875 108.5625 40.78125Q108.390625 40.59375 108.390625 40.3125ZM111.109375 45.515625Q111.109375 43.90625 111.84375 42.953125Q112.59375 42.0 113.8125 42.0Q115.078125 42.0 115.78125 42.890625L115.84375 42.125L116.90625 42.125L116.90625 48.828125Q116.90625 50.171875 116.109375 50.9375Q115.328125 51.703125 114.0 51.703125Q113.25 51.703125 112.53125 51.375Q111.828125 51.0625 111.453125 50.515625L112.0625 49.8125Q112.828125 50.75 113.921875 50.75Q114.765625 50.75 115.25 50.265625Q115.734375 49.78125 115.734375 48.90625L115.734375 48.3125Q115.03125 49.125 113.8125 49.125Q112.59375 49.125 111.84375 48.15625Q111.109375 47.1875 111.109375 45.515625ZM112.296875 45.640625Q112.296875 46.796875 112.765625 47.46875Q113.25 48.125 114.09375 48.125Q115.203125 48.125 115.734375 47.125L115.734375 43.984375Q115.1875 43.0 114.109375 43.0Q113.25 43.0 112.765625 43.671875Q112.296875 44.328125 112.296875 45.640625ZM119.5625 42.96875Q120.34375 42.0 121.59375 42.0Q123.765625 42.0 123.796875 44.46875L123.796875 49.0L122.609375 49.0L122.609375 44.453125Q122.609375 43.71875 122.265625 43.359375Q121.9375 43.0 121.234375 43.0Q120.671875 43.0 120.234375 43.3125Q119.796875 43.609375 119.5625 44.109375L119.5625 49.0L118.390625 49.0L118.390625 39.25L119.5625 39.25L119.5625 42.96875ZM126.984375 40.46875L126.984375 42.125L128.26562 42.125L128.26562 43.046875L126.984375 43.046875L126.984375 47.296875Q126.984375 47.71875 127.15625 47.921875Q127.328125 48.125 127.734375 48.125Q127.9375 48.125 128.29688 48.046875L128.29688 49.0Q127.828125 49.125 127.390625 49.125Q126.609375 49.125 126.203125 48.65625Q125.8125 48.171875 125.8125 47.296875L125.8125 43.046875L124.5625 43.046875L124.5625 42.125L125.8125 42.125L125.8125 40.46875L126.984375 40.46875ZM129.34375 50.84375L128.6875 50.390625Q129.28125 49.546875 129.3125 48.671875L129.3125 47.609375L130.45312 47.609375L130.45312 48.53125Q130.45312 49.171875 130.14062 49.8125Q129.82812 50.453125 129.34375 50.84375ZM135.10938 45.515625Q135.10938 43.890625 135.84375 42.953125Q136.59375 42.0 137.84375 42.0Q139.0625 42.0 139.76562 42.828125L139.8125 42.125L140.89062 42.125L140.89062 51.640625L139.71875 51.640625L139.71875 48.359375Q139.0 49.125 137.82812 49.125Q136.57812 49.125 135.84375 48.15625Q135.10938 47.1875 135.10938 45.59375L135.10938 45.515625ZM136.28125 45.640625Q136.28125 46.828125 136.78125 47.5Q137.28125 48.171875 138.125 48.171875Q139.17188 48.171875 139.71875 47.234375L139.71875 43.875Q139.15625 42.96875 138.125 42.96875Q137.28125 42.96875 136.78125 43.65625Q136.28125 44.328125 136.28125 45.640625ZM146.625 48.328125Q145.9375 49.125 144.60938 49.125Q143.51562 49.125 142.9375 48.484375Q142.375 47.84375 142.35938 46.59375L142.35938 42.125L143.53125 42.125L143.53125 46.5625Q143.53125 48.125 144.8125 48.125Q146.15625 48.125 146.59375 47.125L146.59375 42.125L147.76562 42.125L147.76562 49.0L146.65625 49.0L146.625 48.328125ZM150.67188 49.0L149.48438 49.0L149.48438 42.125L150.67188 42.125L150.67188 49.0ZM149.39062 40.3125Q149.39062 40.03125 149.5625 39.828125Q149.75 39.625 150.09375 39.625Q150.4375 39.625 150.60938 39.828125Q150.78125 40.03125 150.78125 40.3125Q150.78125 40.59375 150.60938 40.78125Q150.4375 40.96875 150.09375 40.96875Q149.75 40.96875 149.5625 40.78125Q149.39062 40.59375 149.39062 40.3125ZM155.14062 48.171875Q155.76562 48.171875 156.23438 47.796875Q156.71875 47.40625 156.76562 46.828125L157.875 46.828125Q157.84375 47.421875 157.46875 47.953125Q157.09375 48.484375 156.46875 48.8125Q155.84375 49.125 155.14062 49.125Q153.73438 49.125 152.90625 48.1875Q152.07812 47.25 152.07812 45.625L152.07812 45.4375Q152.07812 44.421875 152.45312 43.65625Q152.82812 42.875 153.51562 42.4375Q154.20312 42.0 155.14062 42.0Q156.29688 42.0 157.0625 42.703125Q157.82812 43.390625 157.875 44.5L156.76562 44.5Q156.71875 43.828125 156.25 43.40625Q155.79688 42.96875 155.14062 42.96875Q154.25 42.96875 153.75 43.625Q153.26562 44.265625 153.26562 45.484375L153.26562 45.703125Q153.26562 46.890625 153.75 47.53125Q154.23438 48.171875 155.14062 48.171875ZM161.3125 45.8125L160.5625 46.59375L160.5625 49.0L159.39062 49.0L159.39062 39.25L160.5625 39.25L160.5625 45.140625L161.20312 44.390625L163.34375 42.125L164.76562 42.125L162.09375 45.0L165.07812 49.0L163.70312 49.0L161.3125 45.8125ZM167.67188 49.0L166.48438 49.0L166.48438 39.25L167.67188 39.25L167.67188 49.0ZM171.64062 47.28125L173.23438 42.125L174.5 42.125L171.73438 50.0625Q171.09375 51.78125 169.6875 51.78125L169.46875 51.75L169.03125 51.671875L169.03125 50.71875L169.34375 50.75Q169.95312 50.75 170.28125 50.5Q170.60938 50.265625 170.82812 49.625L171.09375 48.921875L168.64062 42.125L169.92188 42.125L171.64062 47.28125Z" fill-rule="nonzero"/><path stroke="#eeeeee" stroke-width="1.0" stroke-linecap="butt" clip-path="url(#id_0)" d="M44.5 56.5L210.5 56.5L210.5 80.5L44.5 80.5Z" fill-rule="nonzero"/><path fill="#3c4043" clip-path="url(#id_0)" d="M57.390625 71.78125Q56.921875 72.453125 56.078125 72.796875Q55.25 73.125 54.125 73.125Q53.0 73.125 52.125 72.59375Q51.25 72.0625 50.765625 71.09375Q50.28125 70.109375 50.28125 68.828125L50.28125 68.015625Q50.28125 65.921875 51.25 64.78125Q52.21875 63.625 53.984375 63.625Q55.4375 63.625 56.3125 64.375Q57.203125 65.109375 57.390625 66.46875L56.171875 66.46875Q55.828125 64.640625 54.0 64.640625Q52.765625 64.640625 52.125 65.5Q51.5 66.359375 51.5 67.984375L51.5 68.734375Q51.5 70.296875 52.203125 71.21875Q52.921875 72.125 54.140625 72.125Q54.8125 72.125 55.328125 71.984375Q55.84375 71.828125 56.1875 71.46875L56.1875 69.390625L54.046875 69.390625L54.046875 68.390625L57.390625 68.390625L57.390625 71.78125ZM59.078125 69.5Q59.078125 68.5 59.46875 67.6875Q59.875 66.875 60.578125 66.4375Q61.28125 66.0 62.1875 66.0Q63.59375 66.0 64.453125 66.984375Q65.328125 67.953125 65.328125 69.5625L65.328125 69.640625Q65.328125 70.640625 64.9375 71.4375Q64.5625 72.234375 63.84375 72.6875Q63.140625 73.125 62.203125 73.125Q60.8125 73.125 59.9375 72.15625Q59.078125 71.1875 59.078125 69.578125L59.078125 69.5ZM60.265625 69.640625Q60.265625 70.78125 60.78125 71.484375Q61.3125 72.171875 62.203125 72.171875Q63.109375 72.171875 63.625 71.46875Q64.15625 70.765625 64.15625 69.5Q64.15625 68.375 63.609375 67.671875Q63.078125 66.96875 62.1875 66.96875Q61.328125 66.96875 60.796875 67.671875Q60.265625 68.359375 60.265625 69.640625ZM67.671875 73.0L66.484375 73.0L66.484375 66.125L67.671875 66.125L67.671875 73.0ZM66.390625 64.3125Q66.390625 64.03125 66.5625 63.828125Q66.75 63.625 67.09375 63.625Q67.4375 63.625 67.609375 63.828125Q67.78125 64.03125 67.78125 64.3125Q67.78125 64.59375 67.609375 64.78125Q67.4375 64.96875 67.09375 64.96875Q66.75 64.96875 66.5625 64.78125Q66.390625 64.59375 66.390625 64.3125ZM70.5 66.125L70.53125 67.0Q71.328125 66.0 72.59375 66.0Q74.765625 66.0 74.796875 68.46875L74.796875 73.0L73.609375 73.0L73.609375 68.453125Q73.609375 67.71875 73.265625 67.359375Q72.9375 67.0 72.234375 67.0Q71.671875 67.0 71.234375 67.3125Q70.796875 67.609375 70.5625 68.109375L70.5625 73.0L69.390625 73.0L69.390625 66.125L70.5 66.125ZM76.109375 69.515625Q76.109375 67.90625 76.84375 66.953125Q77.59375 66.0 78.8125 66.0Q80.078125 66.0 80.78125 66.890625L80.84375 66.125L81.90625 66.125L81.90625 72.828125Q81.90625 74.171875 81.109375 74.9375Q80.328125 75.703125 79.0 75.703125Q78.25 75.703125 77.53125 75.375Q76.828125 75.0625 76.453125 74.515625L77.0625 73.8125Q77.828125 74.75 78.921875 74.75Q79.765625 74.75 80.25 74.265625Q80.734375 73.78125 80.734375 72.90625L80.734375 72.3125Q80.03125 73.125 78.8125 73.125Q77.59375 73.125 76.84375 72.15625Q76.109375 71.1875 76.109375 69.515625ZM77.296875 69.640625Q77.296875 70.796875 77.765625 71.46875Q78.25 72.125 79.09375 72.125Q80.203125 72.125 80.734375 71.125L80.734375 67.984375Q80.1875 67.0 79.109375 67.0Q78.25 67.0 77.765625 67.671875Q77.296875 68.328125 77.296875 69.640625ZM90.390625 71.171875Q90.390625 70.703125 90.03125 70.4375Q89.671875 70.171875 88.78125 69.984375Q87.890625 69.796875 87.359375 69.53125Q86.84375 69.265625 86.59375 68.90625Q86.34375 68.53125 86.34375 68.015625Q86.34375 67.171875 87.046875 66.59375Q87.765625 66.0 88.875 66.0Q90.046875 66.0 90.765625 66.609375Q91.5 67.203125 91.5 68.15625L90.3125 68.15625Q90.3125 67.671875 89.90625 67.328125Q89.5 66.96875 88.875 66.96875Q88.234375 66.96875 87.875 67.25Q87.515625 67.53125 87.515625 67.984375Q87.515625 68.40625 87.84375 68.625Q88.1875 68.828125 89.0625 69.03125Q89.9375 69.234375 90.484375 69.515625Q91.03125 69.78125 91.296875 70.171875Q91.5625 70.546875 91.5625 71.09375Q91.5625 72.015625 90.828125 72.578125Q90.09375 73.125 88.921875 73.125Q88.09375 73.125 87.453125 72.84375Q86.828125 72.546875 86.46875 72.03125Q86.109375 71.5 86.109375 70.890625L87.28125 70.890625Q87.3125 71.46875 87.75 71.828125Q88.1875 72.171875 88.921875 72.171875Q89.578125 72.171875 89.984375 71.90625Q90.390625 71.625 90.390625 71.171875ZM94.984375 64.46875L94.984375 66.125L96.265625 66.125L96.265625 67.046875L94.984375 67.046875L94.984375 71.296875Q94.984375 71.71875 95.15625 71.921875Q95.328125 72.125 95.734375 72.125Q95.9375 72.125 96.296875 72.046875L96.296875 73.0Q95.828125 73.125 95.390625 73.125Q94.609375 73.125 94.203125 72.65625Q93.8125 72.171875 93.8125 71.296875L93.8125 67.046875L92.5625 67.046875L92.5625 66.125L93.8125 66.125L93.8125 64.46875L94.984375 64.46875ZM100.703125 67.1875Q100.4375 67.140625 100.125 67.140625Q98.96875 67.140625 98.5625 68.125L98.5625 73.0L97.390625 73.0L97.390625 66.125L98.53125 66.125L98.546875 66.921875Q99.125 66.0 100.1875 66.0Q100.53125 66.0 100.703125 66.09375L100.703125 67.1875ZM105.625 73.0Q105.53125 72.796875 105.46875 72.28125Q104.640625 73.125 103.515625 73.125Q102.5 73.125 101.84375 72.5625Q101.1875 71.984375 101.1875 71.09375Q101.1875 70.015625 102.0 69.421875Q102.828125 68.828125 104.296875 68.828125L105.4375 68.828125L105.4375 68.296875Q105.4375 67.6875 105.0625 67.328125Q104.703125 66.953125 103.984375 66.953125Q103.359375 66.953125 102.9375 67.265625Q102.515625 67.578125 102.515625 68.03125L101.328125 68.03125Q101.328125 67.515625 101.6875 67.046875Q102.0625 66.5625 102.6875 66.28125Q103.3125 66.0 104.0625 66.0Q105.25 66.0 105.921875 66.59375Q106.59375 67.1875 106.625 68.234375L106.625 71.390625Q106.625 72.34375 106.859375 72.890625L106.859375 73.0L105.625 73.0ZM103.6875 72.109375Q104.234375 72.109375 104.71875 71.828125Q105.21875 71.53125 105.4375 71.078125L105.4375 69.671875L104.53125 69.671875Q102.359375 69.671875 102.359375 70.9375Q102.359375 71.484375 102.734375 71.796875Q103.109375 72.109375 103.6875 72.109375ZM109.671875 73.0L108.484375 73.0L108.484375 66.125L109.671875 66.125L109.671875 73.0ZM108.390625 64.3125Q108.390625 64.03125 108.5625 63.828125Q108.75 63.625 109.09375 63.625Q109.4375 63.625 109.609375 63.828125Q109.78125 64.03125 109.78125 64.3125Q109.78125 64.59375 109.609375 64.78125Q109.4375 64.96875 109.09375 64.96875Q108.75 64.96875 108.5625 64.78125Q108.390625 64.59375 108.390625 64.3125ZM111.109375 69.515625Q111.109375 67.90625 111.84375 66.953125Q112.59375 66.0 113.8125 66.0Q115.078125 66.0 115.78125 66.890625L115.84375 66.125L116.90625 66.125L116.90625 72.828125Q116.90625 74.171875 116.109375 74.9375Q115.328125 75.703125 114.0 75.703125Q113.25 75.703125 112.53125 75.375Q111.828125 75.0625 111.453125 74.515625L112.0625 73.8125Q112.828125 74.75 113.921875 74.75Q114.765625 74.75 115.25 74.265625Q115.734375 73.78125 115.734375 72.90625L115.734375 72.3125Q115.03125 73.125 113.8125 73.125Q112.59375 73.125 111.84375 72.15625Q111.109375 71.1875 111.109375 69.515625ZM112.296875 69.640625Q112.296875 70.796875 112.765625 71.46875Q113.25 72.125 114.09375 72.125Q115.203125 72.125 115.734375 71.125L115.734375 67.984375Q115.1875 67.0 114.109375 67.0Q113.25 67.0 112.765625 67.671875Q112.296875 68.328125 112.296875 69.640625ZM119.5625 66.96875Q120.34375 66.0 121.59375 66.0Q123.765625 66.0 123.796875 68.46875L123.796875 73.0L122.609375 73.0L122.609375 68.453125Q122.609375 67.71875 122.265625 67.359375Q121.9375 67.0 121.234375 67.0Q120.671875 67.0 120.234375 67.3125Q119.796875 67.609375 119.5625 68.109375L119.5625 73.0L118.390625 73.0L118.390625 63.25L119.5625 63.25L119.5625 66.96875ZM126.984375 64.46875L126.984375 66.125L128.26562 66.125L128.26562 67.046875L126.984375 67.046875L126.984375 71.296875Q126.984375 71.71875 127.15625 71.921875Q127.328125 72.125 127.734375 72.125Q127.9375 72.125 128.29688 72.046875L128.29688 73.0Q127.828125 73.125 127.390625 73.125Q126.609375 73.125 126.203125 72.65625Q125.8125 72.171875 125.8125 71.296875L125.8125 67.046875L124.5625 67.046875L124.5625 66.125L125.8125 66.125L125.8125 64.46875L126.984375 64.46875ZM129.34375 74.84375L128.6875 74.390625Q129.28125 73.546875 129.3125 72.671875L129.3125 71.609375L130.45312 71.609375L130.45312 72.53125Q130.45312 73.171875 130.14062 73.8125Q129.82812 74.453125 129.34375 74.84375ZM139.39062 71.171875Q139.39062 70.703125 139.03125 70.4375Q138.67188 70.171875 137.78125 69.984375Q136.89062 69.796875 136.35938 69.53125Q135.84375 69.265625 135.59375 68.90625Q135.34375 68.53125 135.34375 68.015625Q135.34375 67.171875 136.04688 66.59375Q136.76562 66.0 137.875 66.0Q139.04688 66.0 139.76562 66.609375Q140.5 67.203125 140.5 68.15625L139.3125 68.15625Q139.3125 67.671875 138.90625 67.328125Q138.5 66.96875 137.875 66.96875Q137.23438 66.96875 136.875 67.25Q136.51562 67.53125 136.51562 67.984375Q136.51562 68.40625 136.84375 68.625Q137.1875 68.828125 138.0625 69.03125Q138.9375 69.234375 139.48438 69.515625Q140.03125 69.78125 140.29688 70.171875Q140.5625 70.546875 140.5625 71.09375Q140.5625 72.015625 139.82812 72.578125Q139.09375 73.125 137.92188 73.125Q137.09375 73.125 136.45312 72.84375Q135.82812 72.546875 135.46875 72.03125Q135.10938 71.5 135.10938 70.890625L136.28125 70.890625Q136.3125 71.46875 136.75 71.828125Q137.1875 72.171875 137.92188 72.171875Q138.57812 72.171875 138.98438 71.90625Q139.39062 71.625 139.39062 71.171875ZM143.67188 73.0L142.48438 73.0L142.48438 63.25L143.67188 63.25L143.67188 73.0ZM145.07812 69.5Q145.07812 68.5 145.46875 67.6875Q145.875 66.875 146.57812 66.4375Q147.28125 66.0 148.1875 66.0Q149.59375 66.0 150.45312 66.984375Q151.32812 67.953125 151.32812 69.5625L151.32812 69.640625Q151.32812 70.640625 150.9375 71.4375Q150.5625 72.234375 149.84375 72.6875Q149.14062 73.125 148.20312 73.125Q146.8125 73.125 145.9375 72.15625Q145.07812 71.1875 145.07812 69.578125L145.07812 69.5ZM146.26562 69.640625Q146.26562 70.78125 146.78125 71.484375Q147.3125 72.171875 148.20312 72.171875Q149.10938 72.171875 149.625 71.46875Q150.15625 70.765625 150.15625 69.5Q150.15625 68.375 149.60938 67.671875Q149.07812 66.96875 148.1875 66.96875Q147.32812 66.96875 146.79688 67.671875Q146.26562 68.359375 146.26562 69.640625ZM158.46875 71.375L159.79688 66.125L160.96875 66.125L158.96875 73.0L158.01562 73.0L156.34375 67.796875L154.71875 73.0L153.76562 73.0L151.76562 66.125L152.9375 66.125L154.29688 71.265625L155.89062 66.125L156.84375 66.125L158.46875 71.375ZM163.67188 73.0L162.48438 73.0L162.48438 63.25L163.67188 63.25L163.67188 73.0ZM167.64062 71.28125L169.23438 66.125L170.5 66.125L167.73438 74.0625Q167.09375 75.78125 165.6875 75.78125L165.46875 75.75L165.03125 75.671875L165.03125 74.71875L165.34375 74.75Q165.95312 74.75 166.28125 74.5Q166.60938 74.265625 166.82812 73.625L167.09375 72.921875L164.64062 66.125L165.92188 66.125L167.64062 71.28125Z" fill-rule="nonzero"/><path stroke="#eeeeee" stroke-width="1.0" stroke-linecap="butt" clip-path="url(#id_0)" d="M44.5 80.5L210.5 80.5L210.5 104.5L44.5 104.5Z" fill-rule="nonzero"/><path fill="#3c4043" clip-path="url(#id_0)" d="M56.953125 88.765625L53.984375 88.765625L53.984375 97.0L52.78125 97.0L52.78125 88.765625L49.8125 88.765625L49.8125 87.75L56.953125 87.75L56.953125 88.765625ZM62.625 96.328125Q61.9375 97.125 60.609375 97.125Q59.515625 97.125 58.9375 96.484375Q58.375 95.84375 58.359375 94.59375L58.359375 90.125L59.53125 90.125L59.53125 94.5625Q59.53125 96.125 60.8125 96.125Q62.15625 96.125 62.59375 95.125L62.59375 90.125L63.765625 90.125L63.765625 97.0L62.65625 97.0L62.625 96.328125ZM68.703125 91.1875Q68.4375 91.140625 68.125 91.140625Q66.96875 91.140625 66.5625 92.125L66.5625 97.0L65.390625 97.0L65.390625 90.125L66.53125 90.125L66.546875 90.921875Q67.125 90.0 68.1875 90.0Q68.53125 90.0 68.703125 90.09375L68.703125 91.1875ZM70.5 90.125L70.53125 91.0Q71.328125 90.0 72.59375 90.0Q74.765625 90.0 74.796875 92.46875L74.796875 97.0L73.609375 97.0L73.609375 92.453125Q73.609375 91.71875 73.265625 91.359375Q72.9375 91.0 72.234375 91.0Q71.671875 91.0 71.234375 91.3125Q70.796875 91.609375 70.5625 92.109375L70.5625 97.0L69.390625 97.0L69.390625 90.125L70.5 90.125ZM77.671875 97.0L76.484375 97.0L76.484375 90.125L77.671875 90.125L77.671875 97.0ZM76.390625 88.3125Q76.390625 88.03125 76.5625 87.828125Q76.75 87.625 77.09375 87.625Q77.4375 87.625 77.609375 87.828125Q77.78125 88.03125 77.78125 88.3125Q77.78125 88.59375 77.609375 88.78125Q77.4375 88.96875 77.09375 88.96875Q76.75 88.96875 76.5625 88.78125Q76.390625 88.59375 76.390625 88.3125ZM80.5 90.125L80.53125 91.0Q81.328125 90.0 82.59375 90.0Q84.765625 90.0 84.796875 92.46875L84.796875 97.0L83.609375 97.0L83.609375 92.453125Q83.609375 91.71875 83.265625 91.359375Q82.9375 91.0 82.234375 91.0Q81.671875 91.0 81.234375 91.3125Q80.796875 91.609375 80.5625 92.109375L80.5625 97.0L79.390625 97.0L79.390625 90.125L80.5 90.125ZM86.109375 93.515625Q86.109375 91.90625 86.84375 90.953125Q87.59375 90.0 88.8125 90.0Q90.078125 90.0 90.78125 90.890625L90.84375 90.125L91.90625 90.125L91.90625 96.828125Q91.90625 98.171875 91.109375 98.9375Q90.328125 99.703125 89.0 99.703125Q88.25 99.703125 87.53125 99.375Q86.828125 99.0625 86.453125 98.515625L87.0625 97.8125Q87.828125 98.75 88.921875 98.75Q89.765625 98.75 90.25 98.265625Q90.734375 97.78125 90.734375 96.90625L90.734375 96.3125Q90.03125 97.125 88.8125 97.125Q87.59375 97.125 86.84375 96.15625Q86.109375 95.1875 86.109375 93.515625ZM87.296875 93.640625Q87.296875 94.796875 87.765625 95.46875Q88.25 96.125 89.09375 96.125Q90.203125 96.125 90.734375 95.125L90.734375 91.984375Q90.1875 91.0 89.109375 91.0Q88.25 91.0 87.765625 91.671875Q87.296875 92.328125 87.296875 93.640625ZM97.671875 97.0L96.484375 97.0L96.484375 87.25L97.671875 87.25L97.671875 97.0ZM102.234375 97.125Q100.84375 97.125 99.96875 96.21875Q99.09375 95.296875 99.09375 93.75L99.09375 93.546875Q99.09375 92.515625 99.484375 91.71875Q99.875 90.90625 100.578125 90.453125Q101.28125 90.0 102.09375 90.0Q103.4375 90.0 104.171875 90.890625Q104.921875 91.765625 104.921875 93.40625L104.921875 93.90625L100.265625 93.90625Q100.296875 94.921875 100.859375 95.546875Q101.421875 96.171875 102.296875 96.171875Q102.921875 96.171875 103.34375 95.921875Q103.78125 95.65625 104.109375 95.234375L104.828125 95.796875Q103.96875 97.125 102.234375 97.125ZM102.09375 90.96875Q101.375 90.96875 100.890625 91.484375Q100.421875 92.0 100.296875 92.9375L103.75 92.9375L103.75 92.84375Q103.6875 91.953125 103.25 91.46875Q102.828125 90.96875 102.09375 90.96875ZM106.96875 97.0L106.96875 91.046875L105.875 91.046875L105.875 90.125L106.96875 90.125L106.96875 89.421875Q106.96875 88.328125 107.546875 87.71875Q108.140625 87.109375 109.21875 87.109375Q109.625 87.109375 110.03125 87.21875L109.96875 88.171875Q109.671875 88.125 109.328125 88.125Q108.765625 88.125 108.453125 88.453125Q108.140625 88.78125 108.140625 89.40625L108.140625 90.125L109.609375 90.125L109.609375 91.046875L108.140625 91.046875L108.140625 97.0L106.96875 97.0ZM112.984375 88.46875L112.984375 90.125L114.265625 90.125L114.265625 91.046875L112.984375 91.046875L112.984375 95.296875Q112.984375 95.71875 113.15625 95.921875Q113.328125 96.125 113.734375 96.125Q113.9375 96.125 114.296875 96.046875L114.296875 97.0Q113.828125 97.125 113.390625 97.125Q112.609375 97.125 112.203125 96.65625Q111.8125 96.171875 111.8125 95.296875L111.8125 91.046875L110.5625 91.046875L110.5625 90.125L111.8125 90.125L111.8125 88.46875L112.984375 88.46875ZM115.34375 98.84375L114.6875 98.390625Q115.28125 97.546875 115.3125 96.671875L115.3125 95.609375L116.453125 95.609375L116.453125 96.53125Q116.453125 97.171875 116.140625 97.8125Q115.828125 98.453125 115.34375 98.84375ZM122.671875 97.0L121.484375 97.0L121.484375 87.25L122.671875 87.25L122.671875 97.0ZM128.625 97.0Q128.53125 96.796875 128.46875 96.28125Q127.640625 97.125 126.515625 97.125Q125.5 97.125 124.84375 96.5625Q124.1875 95.984375 124.1875 95.09375Q124.1875 94.015625 125.0 93.421875Q125.828125 92.828125 127.296875 92.828125L128.4375 92.828125L128.4375 92.296875Q128.4375 91.6875 128.0625 91.328125Q127.703125 90.953125 126.984375 90.953125Q126.359375 90.953125 125.9375 91.265625Q125.515625 91.578125 125.515625 92.03125L124.328125 92.03125Q124.328125 91.515625 124.6875 91.046875Q125.0625 90.5625 125.6875 90.28125Q126.3125 90.0 127.0625 90.0Q128.25 90.0 128.92188 90.59375Q129.59375 91.1875 129.625 92.234375L129.625 95.390625Q129.625 96.34375 129.85938 96.890625L129.85938 97.0L128.625 97.0ZM126.6875 96.109375Q127.234375 96.109375 127.71875 95.828125Q128.21875 95.53125 128.4375 95.078125L128.4375 93.671875L127.53125 93.671875Q125.359375 93.671875 125.359375 94.9375Q125.359375 95.484375 125.734375 95.796875Q126.109375 96.109375 126.6875 96.109375ZM134.70312 91.1875Q134.4375 91.140625 134.125 91.140625Q132.96875 91.140625 132.5625 92.125L132.5625 97.0L131.39062 97.0L131.39062 90.125L132.53125 90.125L132.54688 90.921875Q133.125 90.0 134.1875 90.0Q134.53125 90.0 134.70312 90.09375L134.70312 91.1875ZM135.10938 93.515625Q135.10938 91.90625 135.84375 90.953125Q136.59375 90.0 137.8125 90.0Q139.07812 90.0 139.78125 90.890625L139.84375 90.125L140.90625 90.125L140.90625 96.828125Q140.90625 98.171875 140.10938 98.9375Q139.32812 99.703125 138.0 99.703125Q137.25 99.703125 136.53125 99.375Q135.82812 99.0625 135.45312 98.515625L136.0625 97.8125Q136.82812 98.75 137.92188 98.75Q138.76562 98.75 139.25 98.265625Q139.73438 97.78125 139.73438 96.90625L139.73438 96.3125Q139.03125 97.125 137.8125 97.125Q136.59375 97.125 135.84375 96.15625Q135.10938 95.1875 135.10938 93.515625ZM136.29688 93.640625Q136.29688 94.796875 136.76562 95.46875Q137.25 96.125 138.09375 96.125Q139.20312 96.125 139.73438 95.125L139.73438 91.984375Q139.1875 91.0 138.10938 91.0Q137.25 91.0 136.76562 91.671875Q136.29688 92.328125 136.29688 93.640625ZM145.23438 97.125Q143.84375 97.125 142.96875 96.21875Q142.09375 95.296875 142.09375 93.75L142.09375 93.546875Q142.09375 92.515625 142.48438 91.71875Q142.875 90.90625 143.57812 90.453125Q144.28125 90.0 145.09375 90.0Q146.4375 90.0 147.17188 90.890625Q147.92188 91.765625 147.92188 93.40625L147.92188 93.90625L143.26562 93.90625Q143.29688 94.921875 143.85938 95.546875Q144.42188 96.171875 145.29688 96.171875Q145.92188 96.171875 146.34375 95.921875Q146.78125 95.65625 147.10938 95.234375L147.82812 95.796875Q146.96875 97.125 145.23438 97.125ZM145.09375 90.96875Q144.375 90.96875 143.89062 91.484375Q143.42188 92.0 143.29688 92.9375L146.75 92.9375L146.75 92.84375Q146.6875 91.953125 146.25 91.46875Q145.82812 90.96875 145.09375 90.96875ZM155.70312 91.1875Q155.4375 91.140625 155.125 91.140625Q153.96875 91.140625 153.5625 92.125L153.5625 97.0L152.39062 97.0L152.39062 90.125L153.53125 90.125L153.54688 90.921875Q154.125 90.0 155.1875 90.0Q155.53125 90.0 155.70312 90.09375L155.70312 91.1875ZM160.625 97.0Q160.53125 96.796875 160.46875 96.28125Q159.64062 97.125 158.51562 97.125Q157.5 97.125 156.84375 96.5625Q156.1875 95.984375 156.1875 95.09375Q156.1875 94.015625 157.0 93.421875Q157.82812 92.828125 159.29688 92.828125L160.4375 92.828125L160.4375 92.296875Q160.4375 91.6875 160.0625 91.328125Q159.70312 90.953125 158.98438 90.953125Q158.35938 90.953125 157.9375 91.265625Q157.51562 91.578125 157.51562 92.03125L156.32812 92.03125Q156.32812 91.515625 156.6875 91.046875Q157.0625 90.5625 157.6875 90.28125Q158.3125 90.0 159.0625 90.0Q160.25 90.0 160.92188 90.59375Q161.59375 91.1875 161.625 92.234375L161.625 95.390625Q161.625 96.34375 161.85938 96.890625L161.85938 97.0L160.625 97.0ZM158.6875 96.109375Q159.23438 96.109375 159.71875 95.828125Q160.21875 95.53125 160.4375 95.078125L160.4375 93.671875L159.53125 93.671875Q157.35938 93.671875 157.35938 94.9375Q157.35938 95.484375 157.73438 95.796875Q158.10938 96.109375 158.6875 96.109375ZM163.10938 93.515625Q163.10938 91.921875 163.84375 90.96875Q164.59375 90.0 165.8125 90.0Q167.01562 90.0 167.71875 90.828125L167.71875 87.25L168.90625 87.25L168.90625 97.0L167.8125 97.0L167.76562 96.265625Q167.0625 97.125 165.79688 97.125Q164.60938 97.125 163.85938 96.15625Q163.10938 95.171875 163.10938 93.59375L163.10938 93.515625ZM164.28125 93.640625Q164.28125 94.8125 164.76562 95.46875Q165.25 96.125 166.09375 96.125Q167.20312 96.125 167.71875 95.125L167.71875 91.96875Q167.20312 91.0 166.10938 91.0Q165.25 91.0 164.76562 91.671875Q164.28125 92.328125 164.28125 93.640625ZM171.67188 97.0L170.48438 97.0L170.48438 90.125L171.67188 90.125L171.67188 97.0ZM170.39062 88.3125Q170.39062 88.03125 170.5625 87.828125Q170.75 87.625 171.09375 87.625Q171.4375 87.625 171.60938 87.828125Q171.78125 88.03125 171.78125 88.3125Q171.78125 88.59375 171.60938 88.78125Q171.4375 88.96875 171.09375 88.96875Q170.75 88.96875 170.5625 88.78125Q170.39062 88.59375 170.39062 88.3125ZM177.625 96.328125Q176.9375 97.125 175.60938 97.125Q174.51562 97.125 173.9375 96.484375Q173.375 95.84375 173.35938 94.59375L173.35938 90.125L174.53125 90.125L174.53125 94.5625Q174.53125 96.125 175.8125 96.125Q177.15625 96.125 177.59375 95.125L177.59375 90.125L178.76562 90.125L178.76562 97.0L177.65625 97.0L177.625 96.328125ZM184.39062 95.171875Q184.39062 94.703125 184.03125 94.4375Q183.67188 94.171875 182.78125 93.984375Q181.89062 93.796875 181.35938 93.53125Q180.84375 93.265625 180.59375 92.90625Q180.34375 92.53125 180.34375 92.015625Q180.34375 91.171875 181.04688 90.59375Q181.76562 90.0 182.875 90.0Q184.04688 90.0 184.76562 90.609375Q185.5 91.203125 185.5 92.15625L184.3125 92.15625Q184.3125 91.671875 183.90625 91.328125Q183.5 90.96875 182.875 90.96875Q182.23438 90.96875 181.875 91.25Q181.51562 91.53125 181.51562 91.984375Q181.51562 92.40625 181.84375 92.625Q182.1875 92.828125 183.0625 93.03125Q183.9375 93.234375 184.48438 93.515625Q185.03125 93.78125 185.29688 94.171875Q185.5625 94.546875 185.5625 95.09375Q185.5625 96.015625 184.82812 96.578125Q184.09375 97.125 182.92188 97.125Q182.09375 97.125 181.45312 96.84375Q180.82812 96.546875 180.46875 96.03125Q180.10938 95.5 180.10938 94.890625L181.28125 94.890625Q181.3125 95.46875 181.75 95.828125Q182.1875 96.171875 182.92188 96.171875Q183.57812 96.171875 183.98438 95.90625Q184.39062 95.625 184.39062 95.171875Z" fill-rule="nonzero"/><path stroke="#eeeeee" stroke-width="1.0" stroke-linecap="butt" clip-path="url(#id_0)" d="M44.5 104.5L210.5 104.5L210.5 128.5L44.5 128.5Z" fill-rule="nonzero"/><path fill="#3c4043" clip-path="url(#id_0)" d="M56.953125 112.765625L53.984375 112.765625L53.984375 121.0L52.78125 121.0L52.78125 112.765625L49.8125 112.765625L49.8125 111.75L56.953125 111.75L56.953125 112.765625ZM62.625 120.328125Q61.9375 121.125 60.609375 121.125Q59.515625 121.125 58.9375 120.484375Q58.375 119.84375 58.359375 118.59375L58.359375 114.125L59.53125 114.125L59.53125 118.5625Q59.53125 120.125 60.8125 120.125Q62.15625 120.125 62.59375 119.125L62.59375 114.125L63.765625 114.125L63.765625 121.0L62.65625 121.0L62.625 120.328125ZM68.703125 115.1875Q68.4375 115.140625 68.125 115.140625Q66.96875 115.140625 66.5625 116.125L66.5625 121.0L65.390625 121.0L65.390625 114.125L66.53125 114.125L66.546875 114.921875Q67.125 114.0 68.1875 114.0Q68.53125 114.0 68.703125 114.09375L68.703125 115.1875ZM70.5 114.125L70.53125 115.0Q71.328125 114.0 72.59375 114.0Q74.765625 114.0 74.796875 116.46875L74.796875 121.0L73.609375 121.0L73.609375 116.453125Q73.609375 115.71875 73.265625 115.359375Q72.9375 115.0 72.234375 115.0Q71.671875 115.0 71.234375 115.3125Q70.796875 115.609375 70.5625 116.109375L70.5625 121.0L69.390625 121.0L69.390625 114.125L70.5 114.125ZM77.671875 121.0L76.484375 121.0L76.484375 114.125L77.671875 114.125L77.671875 121.0ZM76.390625 112.3125Q76.390625 112.03125 76.5625 111.828125Q76.75 111.625 77.09375 111.625Q77.4375 111.625 77.609375 111.828125Q77.78125 112.03125 77.78125 112.3125Q77.78125 112.59375 77.609375 112.78125Q77.4375 112.96875 77.09375 112.96875Q76.75 112.96875 76.5625 112.78125Q76.390625 112.59375 76.390625 112.3125ZM80.5 114.125L80.53125 115.0Q81.328125 114.0 82.59375 114.0Q84.765625 114.0 84.796875 116.46875L84.796875 121.0L83.609375 121.0L83.609375 116.453125Q83.609375 115.71875 83.265625 115.359375Q82.9375 115.0 82.234375 115.0Q81.671875 115.0 81.234375 115.3125Q80.796875 115.609375 80.5625 116.109375L80.5625 121.0L79.390625 121.0L79.390625 114.125L80.5 114.125ZM86.109375 117.515625Q86.109375 115.90625 86.84375 114.953125Q87.59375 114.0 88.8125 114.0Q90.078125 114.0 90.78125 114.890625L90.84375 114.125L91.90625 114.125L91.90625 120.828125Q91.90625 122.171875 91.109375 122.9375Q90.328125 123.703125 89.0 123.703125Q88.25 123.703125 87.53125 123.375Q86.828125 123.0625 86.453125 122.515625L87.0625 121.8125Q87.828125 122.75 88.921875 122.75Q89.765625 122.75 90.25 122.265625Q90.734375 121.78125 90.734375 120.90625L90.734375 120.3125Q90.03125 121.125 88.8125 121.125Q87.59375 121.125 86.84375 120.15625Q86.109375 119.1875 86.109375 117.515625ZM87.296875 117.640625Q87.296875 118.796875 87.765625 119.46875Q88.25 120.125 89.09375 120.125Q90.203125 120.125 90.734375 119.125L90.734375 115.984375Q90.1875 115.0 89.109375 115.0Q88.25 115.0 87.765625 115.671875Q87.296875 116.328125 87.296875 117.640625ZM97.671875 121.0L96.484375 121.0L96.484375 111.25L97.671875 111.25L97.671875 121.0ZM102.234375 121.125Q100.84375 121.125 99.96875 120.21875Q99.09375 119.296875 99.09375 117.75L99.09375 117.546875Q99.09375 116.515625 99.484375 115.71875Q99.875 114.90625 100.578125 114.453125Q101.28125 114.0 102.09375 114.0Q103.4375 114.0 104.171875 114.890625Q104.921875 115.765625 104.921875 117.40625L104.921875 117.90625L100.265625 117.90625Q100.296875 118.921875 100.859375 119.546875Q101.421875 120.171875 102.296875 120.171875Q102.921875 120.171875 103.34375 119.921875Q103.78125 119.65625 104.109375 119.234375L104.828125 119.796875Q103.96875 121.125 102.234375 121.125ZM102.09375 114.96875Q101.375 114.96875 100.890625 115.484375Q100.421875 116.0 100.296875 116.9375L103.75 116.9375L103.75 116.84375Q103.6875 115.953125 103.25 115.46875Q102.828125 114.96875 102.09375 114.96875ZM106.96875 121.0L106.96875 115.046875L105.875 115.046875L105.875 114.125L106.96875 114.125L106.96875 113.421875Q106.96875 112.328125 107.546875 111.71875Q108.140625 111.109375 109.21875 111.109375Q109.625 111.109375 110.03125 111.21875L109.96875 112.171875Q109.671875 112.125 109.328125 112.125Q108.765625 112.125 108.453125 112.453125Q108.140625 112.78125 108.140625 113.40625L108.140625 114.125L109.609375 114.125L109.609375 115.046875L108.140625 115.046875L108.140625 121.0L106.96875 121.0ZM112.984375 112.46875L112.984375 114.125L114.265625 114.125L114.265625 115.046875L112.984375 115.046875L112.984375 119.296875Q112.984375 119.71875 113.15625 119.921875Q113.328125 120.125 113.734375 120.125Q113.9375 120.125 114.296875 120.046875L114.296875 121.0Q113.828125 121.125 113.390625 121.125Q112.609375 121.125 112.203125 120.65625Q111.8125 120.171875 111.8125 119.296875L111.8125 115.046875L110.5625 115.046875L110.5625 114.125L111.8125 114.125L111.8125 112.46875L112.984375 112.46875ZM115.34375 122.84375L114.6875 122.390625Q115.28125 121.546875 115.3125 120.671875L115.3125 119.609375L116.453125 119.609375L116.453125 120.53125Q116.453125 121.171875 116.140625 121.8125Q115.828125 122.453125 115.34375 122.84375ZM125.390625 119.171875Q125.390625 118.703125 125.03125 118.4375Q124.671875 118.171875 123.78125 117.984375Q122.890625 117.796875 122.359375 117.53125Q121.84375 117.265625 121.59375 116.90625Q121.34375 116.53125 121.34375 116.015625Q121.34375 115.171875 122.046875 114.59375Q122.765625 114.0 123.875 114.0Q125.046875 114.0 125.765625 114.609375Q126.5 115.203125 126.5 116.15625L125.3125 116.15625Q125.3125 115.671875 124.90625 115.328125Q124.5 114.96875 123.875 114.96875Q123.234375 114.96875 122.875 115.25Q122.515625 115.53125 122.515625 115.984375Q122.515625 116.40625 122.84375 116.625Q123.1875 116.828125 124.0625 117.03125Q124.9375 117.234375 125.484375 117.515625Q126.03125 117.78125 126.296875 118.171875Q126.5625 118.546875 126.5625 119.09375Q126.5625 120.015625 125.828125 120.578125Q125.09375 121.125 123.921875 121.125Q123.09375 121.125 122.453125 120.84375Q121.828125 120.546875 121.46875 120.03125Q121.109375 119.5 121.109375 118.890625L122.28125 118.890625Q122.3125 119.46875 122.75 119.828125Q123.1875 120.171875 123.921875 120.171875Q124.578125 120.171875 124.984375 119.90625Q125.390625 119.625 125.390625 119.171875ZM129.5 114.125L129.53125 114.890625Q130.28125 114.0 131.5625 114.0Q133.0 114.0 133.53125 115.109375Q133.85938 114.609375 134.40625 114.3125Q134.96875 114.0 135.71875 114.0Q137.96875 114.0 138.01562 116.390625L138.01562 121.0L136.84375 121.0L136.84375 116.46875Q136.84375 115.734375 136.5 115.375Q136.17188 115.0 135.375 115.0Q134.71875 115.0 134.28125 115.390625Q133.85938 115.78125 133.78125 116.4375L133.78125 121.0L132.60938 121.0L132.60938 116.5Q132.60938 115.0 131.14062 115.0Q129.98438 115.0 129.5625 115.984375L129.5625 121.0L128.375 121.0L128.375 114.125L129.5 114.125ZM143.625 121.0Q143.53125 120.796875 143.46875 120.28125Q142.64062 121.125 141.51562 121.125Q140.5 121.125 139.84375 120.5625Q139.1875 119.984375 139.1875 119.09375Q139.1875 118.015625 140.0 117.421875Q140.82812 116.828125 142.29688 116.828125L143.4375 116.828125L143.4375 116.296875Q143.4375 115.6875 143.0625 115.328125Q142.70312 114.953125 141.98438 114.953125Q141.35938 114.953125 140.9375 115.265625Q140.51562 115.578125 140.51562 116.03125L139.32812 116.03125Q139.32812 115.515625 139.6875 115.046875Q140.0625 114.5625 140.6875 114.28125Q141.3125 114.0 142.0625 114.0Q143.25 114.0 143.92188 114.59375Q144.59375 115.1875 144.625 116.234375L144.625 119.390625Q144.625 120.34375 144.85938 120.890625L144.85938 121.0L143.625 121.0ZM141.6875 120.109375Q142.23438 120.109375 142.71875 119.828125Q143.21875 119.53125 143.4375 119.078125L143.4375 117.671875L142.53125 117.671875Q140.35938 117.671875 140.35938 118.9375Q140.35938 119.484375 140.73438 119.796875Q141.10938 120.109375 141.6875 120.109375ZM147.67188 121.0L146.48438 121.0L146.48438 111.25L147.67188 111.25L147.67188 121.0ZM150.67188 121.0L149.48438 121.0L149.48438 111.25L150.67188 111.25L150.67188 121.0ZM158.70312 115.1875Q158.4375 115.140625 158.125 115.140625Q156.96875 115.140625 156.5625 116.125L156.5625 121.0L155.39062 121.0L155.39062 114.125L156.53125 114.125L156.54688 114.921875Q157.125 114.0 158.1875 114.0Q158.53125 114.0 158.70312 114.09375L158.70312 115.1875ZM163.625 121.0Q163.53125 120.796875 163.46875 120.28125Q162.64062 121.125 161.51562 121.125Q160.5 121.125 159.84375 120.5625Q159.1875 119.984375 159.1875 119.09375Q159.1875 118.015625 160.0 117.421875Q160.82812 116.828125 162.29688 116.828125L163.4375 116.828125L163.4375 116.296875Q163.4375 115.6875 163.0625 115.328125Q162.70312 114.953125 161.98438 114.953125Q161.35938 114.953125 160.9375 115.265625Q160.51562 115.578125 160.51562 116.03125L159.32812 116.03125Q159.32812 115.515625 159.6875 115.046875Q160.0625 114.5625 160.6875 114.28125Q161.3125 114.0 162.0625 114.0Q163.25 114.0 163.92188 114.59375Q164.59375 115.1875 164.625 116.234375L164.625 119.390625Q164.625 120.34375 164.85938 120.890625L164.85938 121.0L163.625 121.0ZM161.6875 120.109375Q162.23438 120.109375 162.71875 119.828125Q163.21875 119.53125 163.4375 119.078125L163.4375 117.671875L162.53125 117.671875Q160.35938 117.671875 160.35938 118.9375Q160.35938 119.484375 160.73438 119.796875Q161.10938 120.109375 161.6875 120.109375ZM166.10938 117.515625Q166.10938 115.921875 166.84375 114.96875Q167.59375 114.0 168.8125 114.0Q170.01562 114.0 170.71875 114.828125L170.71875 111.25L171.90625 111.25L171.90625 121.0L170.8125 121.0L170.76562 120.265625Q170.0625 121.125 168.79688 121.125Q167.60938 121.125 166.85938 120.15625Q166.10938 119.171875 166.10938 117.59375L166.10938 117.515625ZM167.28125 117.640625Q167.28125 118.8125 167.76562 119.46875Q168.25 120.125 169.09375 120.125Q170.20312 120.125 170.71875 119.125L170.71875 115.96875Q170.20312 115.0 169.10938 115.0Q168.25 115.0 167.76562 115.671875Q167.28125 116.328125 167.28125 117.640625ZM174.67188 121.0L173.48438 121.0L173.48438 114.125L174.67188 114.125L174.67188 121.0ZM173.39062 112.3125Q173.39062 112.03125 173.5625 111.828125Q173.75 111.625 174.09375 111.625Q174.4375 111.625 174.60938 111.828125Q174.78125 112.03125 174.78125 112.3125Q174.78125 112.59375 174.60938 112.78125Q174.4375 112.96875 174.09375 112.96875Q173.75 112.96875 173.5625 112.78125Q173.39062 112.59375 173.39062 112.3125ZM180.625 120.328125Q179.9375 121.125 178.60938 121.125Q177.51562 121.125 176.9375 120.484375Q176.375 119.84375 176.35938 118.59375L176.35938 114.125L177.53125 114.125L177.53125 118.5625Q177.53125 120.125 178.8125 120.125Q180.15625 120.125 180.59375 119.125L180.59375 114.125L181.76562 114.125L181.76562 121.0L180.65625 121.0L180.625 120.328125ZM187.39062 119.171875Q187.39062 118.703125 187.03125 118.4375Q186.67188 118.171875 185.78125 117.984375Q184.89062 117.796875 184.35938 117.53125Q183.84375 117.265625 183.59375 116.90625Q183.34375 116.53125 183.34375 116.015625Q183.34375 115.171875 184.04688 114.59375Q184.76562 114.0 185.875 114.0Q187.04688 114.0 187.76562 114.609375Q188.5 115.203125 188.5 116.15625L187.3125 116.15625Q187.3125 115.671875 186.90625 115.328125Q186.5 114.96875 185.875 114.96875Q185.23438 114.96875 184.875 115.25Q184.51562 115.53125 184.51562 115.984375Q184.51562 116.40625 184.84375 116.625Q185.1875 116.828125 186.0625 117.03125Q186.9375 117.234375 187.48438 117.515625Q188.03125 117.78125 188.29688 118.171875Q188.5625 118.546875 188.5625 119.09375Q188.5625 120.015625 187.82812 120.578125Q187.09375 121.125 185.92188 121.125Q185.09375 121.125 184.45312 120.84375Q183.82812 120.546875 183.46875 120.03125Q183.10938 119.5 183.10938 118.890625L184.28125 118.890625Q184.3125 119.46875 184.75 119.828125Q185.1875 120.171875 185.92188 120.171875Q186.57812 120.171875 186.98438 119.90625Q187.39062 119.625 187.39062 119.171875Z" fill-rule="nonzero"/><path stroke="#eeeeee" stroke-width="1.0" stroke-linecap="butt" clip-path="url(#id_0)" d="M44.5 128.5L210.5 128.5L210.5 152.5L44.5 152.5Z" fill-rule="nonzero"/><path fill="#3c4043" clip-path="url(#id_0)" d="M56.953125 136.76562L53.984375 136.76562L53.984375 145.0L52.78125 145.0L52.78125 136.76562L49.8125 136.76562L49.8125 135.75L56.953125 135.75L56.953125 136.76562ZM62.625 144.32812Q61.9375 145.125 60.609375 145.125Q59.515625 145.125 58.9375 144.48438Q58.375 143.84375 58.359375 142.59375L58.359375 138.125L59.53125 138.125L59.53125 142.5625Q59.53125 144.125 60.8125 144.125Q62.15625 144.125 62.59375 143.125L62.59375 138.125L63.765625 138.125L63.765625 145.0L62.65625 145.0L62.625 144.32812ZM68.703125 139.1875Q68.4375 139.14062 68.125 139.14062Q66.96875 139.14062 66.5625 140.125L66.5625 145.0L65.390625 145.0L65.390625 138.125L66.53125 138.125L66.546875 138.92188Q67.125 138.0 68.1875 138.0Q68.53125 138.0 68.703125 138.09375L68.703125 139.1875ZM70.5 138.125L70.53125 139.0Q71.328125 138.0 72.59375 138.0Q74.765625 138.0 74.796875 140.46875L74.796875 145.0L73.609375 145.0L73.609375 140.45312Q73.609375 139.71875 73.265625 139.35938Q72.9375 139.0 72.234375 139.0Q71.671875 139.0 71.234375 139.3125Q70.796875 139.60938 70.5625 140.10938L70.5625 145.0L69.390625 145.0L69.390625 138.125L70.5 138.125ZM77.671875 145.0L76.484375 145.0L76.484375 138.125L77.671875 138.125L77.671875 145.0ZM76.390625 136.3125Q76.390625 136.03125 76.5625 135.82812Q76.75 135.625 77.09375 135.625Q77.4375 135.625 77.609375 135.82812Q77.78125 136.03125 77.78125 136.3125Q77.78125 136.59375 77.609375 136.78125Q77.4375 136.96875 77.09375 136.96875Q76.75 136.96875 76.5625 136.78125Q76.390625 136.59375 76.390625 136.3125ZM80.5 138.125L80.53125 139.0Q81.328125 138.0 82.59375 138.0Q84.765625 138.0 84.796875 140.46875L84.796875 145.0L83.609375 145.0L83.609375 140.45312Q83.609375 139.71875 83.265625 139.35938Q82.9375 139.0 82.234375 139.0Q81.671875 139.0 81.234375 139.3125Q80.796875 139.60938 80.5625 140.10938L80.5625 145.0L79.390625 145.0L79.390625 138.125L80.5 138.125ZM86.109375 141.51562Q86.109375 139.90625 86.84375 138.95312Q87.59375 138.0 88.8125 138.0Q90.078125 138.0 90.78125 138.89062L90.84375 138.125L91.90625 138.125L91.90625 144.82812Q91.90625 146.17188 91.109375 146.9375Q90.328125 147.70312 89.0 147.70312Q88.25 147.70312 87.53125 147.375Q86.828125 147.0625 86.453125 146.51562L87.0625 145.8125Q87.828125 146.75 88.921875 146.75Q89.765625 146.75 90.25 146.26562Q90.734375 145.78125 90.734375 144.90625L90.734375 144.3125Q90.03125 145.125 88.8125 145.125Q87.59375 145.125 86.84375 144.15625Q86.109375 143.1875 86.109375 141.51562ZM87.296875 141.64062Q87.296875 142.79688 87.765625 143.46875Q88.25 144.125 89.09375 144.125Q90.203125 144.125 90.734375 143.125L90.734375 139.98438Q90.1875 139.0 89.109375 139.0Q88.25 139.0 87.765625 139.67188Q87.296875 140.32812 87.296875 141.64062ZM99.703125 139.1875Q99.4375 139.14062 99.125 139.14062Q97.96875 139.14062 97.5625 140.125L97.5625 145.0L96.390625 145.0L96.390625 138.125L97.53125 138.125L97.546875 138.92188Q98.125 138.0 99.1875 138.0Q99.53125 138.0 99.703125 138.09375L99.703125 139.1875ZM101.671875 145.0L100.484375 145.0L100.484375 138.125L101.671875 138.125L101.671875 145.0ZM100.390625 136.3125Q100.390625 136.03125 100.5625 135.82812Q100.75 135.625 101.09375 135.625Q101.4375 135.625 101.609375 135.82812Q101.78125 136.03125 101.78125 136.3125Q101.78125 136.59375 101.609375 136.78125Q101.4375 136.96875 101.09375 136.96875Q100.75 136.96875 100.5625 136.78125Q100.390625 136.59375 100.390625 136.3125ZM103.109375 141.51562Q103.109375 139.90625 103.84375 138.95312Q104.59375 138.0 105.8125 138.0Q107.078125 138.0 107.78125 138.89062L107.84375 138.125L108.90625 138.125L108.90625 144.82812Q108.90625 146.17188 108.109375 146.9375Q107.328125 147.70312 106.0 147.70312Q105.25 147.70312 104.53125 147.375Q103.828125 147.0625 103.453125 146.51562L104.0625 145.8125Q104.828125 146.75 105.921875 146.75Q106.765625 146.75 107.25 146.26562Q107.734375 145.78125 107.734375 144.90625L107.734375 144.3125Q107.03125 145.125 105.8125 145.125Q104.59375 145.125 103.84375 144.15625Q103.109375 143.1875 103.109375 141.51562ZM104.296875 141.64062Q104.296875 142.79688 104.765625 143.46875Q105.25 144.125 106.09375 144.125Q107.203125 144.125 107.734375 143.125L107.734375 139.98438Q107.1875 139.0 106.109375 139.0Q105.25 139.0 104.765625 139.67188Q104.296875 140.32812 104.296875 141.64062ZM111.5625 138.96875Q112.34375 138.0 113.59375 138.0Q115.765625 138.0 115.796875 140.46875L115.796875 145.0L114.609375 145.0L114.609375 140.45312Q114.609375 139.71875 114.265625 139.35938Q113.9375 139.0 113.234375 139.0Q112.671875 139.0 112.234375 139.3125Q111.796875 139.60938 111.5625 140.10938L111.5625 145.0L110.390625 145.0L110.390625 135.25L111.5625 135.25L111.5625 138.96875ZM118.984375 136.46875L118.984375 138.125L120.265625 138.125L120.265625 139.04688L118.984375 139.04688L118.984375 143.29688Q118.984375 143.71875 119.15625 143.92188Q119.328125 144.125 119.734375 144.125Q119.9375 144.125 120.296875 144.04688L120.296875 145.0Q119.828125 145.125 119.390625 145.125Q118.609375 145.125 118.203125 144.65625Q117.8125 144.17188 117.8125 143.29688L117.8125 139.04688L116.5625 139.04688L116.5625 138.125L117.8125 138.125L117.8125 136.46875L118.984375 136.46875ZM121.34375 146.84375L120.6875 146.39062Q121.28125 145.54688 121.3125 144.67188L121.3125 143.60938L122.453125 143.60938L122.453125 144.53125Q122.453125 145.17188 122.140625 145.8125Q121.828125 146.45312 121.34375 146.84375ZM128.67188 145.0L127.484375 145.0L127.484375 135.25L128.67188 135.25L128.67188 145.0ZM134.625 145.0Q134.53125 144.79688 134.46875 144.28125Q133.64062 145.125 132.51562 145.125Q131.5 145.125 130.84375 144.5625Q130.1875 143.98438 130.1875 143.09375Q130.1875 142.01562 131.0 141.42188Q131.82812 140.82812 133.29688 140.82812L134.4375 140.82812L134.4375 140.29688Q134.4375 139.6875 134.0625 139.32812Q133.70312 138.95312 132.98438 138.95312Q132.35938 138.95312 131.9375 139.26562Q131.51562 139.57812 131.51562 140.03125L130.32812 140.03125Q130.32812 139.51562 130.6875 139.04688Q131.0625 138.5625 131.6875 138.28125Q132.3125 138.0 133.0625 138.0Q134.25 138.0 134.92188 138.59375Q135.59375 139.1875 135.625 140.23438L135.625 143.39062Q135.625 144.34375 135.85938 144.89062L135.85938 145.0L134.625 145.0ZM132.6875 144.10938Q133.23438 144.10938 133.71875 143.82812Q134.21875 143.53125 134.4375 143.07812L134.4375 141.67188L133.53125 141.67188Q131.35938 141.67188 131.35938 142.9375Q131.35938 143.48438 131.73438 143.79688Q132.10938 144.10938 132.6875 144.10938ZM140.70312 139.1875Q140.4375 139.14062 140.125 139.14062Q138.96875 139.14062 138.5625 140.125L138.5625 145.0L137.39062 145.0L137.39062 138.125L138.53125 138.125L138.54688 138.92188Q139.125 138.0 140.1875 138.0Q140.53125 138.0 140.70312 138.09375L140.70312 139.1875ZM141.10938 141.51562Q141.10938 139.90625 141.84375 138.95312Q142.59375 138.0 143.8125 138.0Q145.07812 138.0 145.78125 138.89062L145.84375 138.125L146.90625 138.125L146.90625 144.82812Q146.90625 146.17188 146.10938 146.9375Q145.32812 147.70312 144.0 147.70312Q143.25 147.70312 142.53125 147.375Q141.82812 147.0625 141.45312 146.51562L142.0625 145.8125Q142.82812 146.75 143.92188 146.75Q144.76562 146.75 145.25 146.26562Q145.73438 145.78125 145.73438 144.90625L145.73438 144.3125Q145.03125 145.125 143.8125 145.125Q142.59375 145.125 141.84375 144.15625Q141.10938 143.1875 141.10938 141.51562ZM142.29688 141.64062Q142.29688 142.79688 142.76562 143.46875Q143.25 144.125 144.09375 144.125Q145.20312 144.125 145.73438 143.125L145.73438 139.98438Q145.1875 139.0 144.10938 139.0Q143.25 139.0 142.76562 139.67188Q142.29688 140.32812 142.29688 141.64062ZM151.23438 145.125Q149.84375 145.125 148.96875 144.21875Q148.09375 143.29688 148.09375 141.75L148.09375 141.54688Q148.09375 140.51562 148.48438 139.71875Q148.875 138.90625 149.57812 138.45312Q150.28125 138.0 151.09375 138.0Q152.4375 138.0 153.17188 138.89062Q153.92188 139.76562 153.92188 141.40625L153.92188 141.90625L149.26562 141.90625Q149.29688 142.92188 149.85938 143.54688Q150.42188 144.17188 151.29688 144.17188Q151.92188 144.17188 152.34375 143.92188Q152.78125 143.65625 153.10938 143.23438L153.82812 143.79688Q152.96875 145.125 151.23438 145.125ZM151.09375 138.96875Q150.375 138.96875 149.89062 139.48438Q149.42188 140.0 149.29688 140.9375L152.75 140.9375L152.75 140.84375Q152.6875 139.95312 152.25 139.46875Q151.82812 138.96875 151.09375 138.96875ZM161.70312 139.1875Q161.4375 139.14062 161.125 139.14062Q159.96875 139.14062 159.5625 140.125L159.5625 145.0L158.39062 145.0L158.39062 138.125L159.53125 138.125L159.54688 138.92188Q160.125 138.0 161.1875 138.0Q161.53125 138.0 161.70312 138.09375L161.70312 139.1875ZM166.625 145.0Q166.53125 144.79688 166.46875 144.28125Q165.64062 145.125 164.51562 145.125Q163.5 145.125 162.84375 144.5625Q162.1875 143.98438 162.1875 143.09375Q162.1875 142.01562 163.0 141.42188Q163.82812 140.82812 165.29688 140.82812L166.4375 140.82812L166.4375 140.29688Q166.4375 139.6875 166.0625 139.32812Q165.70312 138.95312 164.98438 138.95312Q164.35938 138.95312 163.9375 139.26562Q163.51562 139.57812 163.51562 140.03125L162.32812 140.03125Q162.32812 139.51562 162.6875 139.04688Q163.0625 138.5625 163.6875 138.28125Q164.3125 138.0 165.0625 138.0Q166.25 138.0 166.92188 138.59375Q167.59375 139.1875 167.625 140.23438L167.625 143.39062Q167.625 144.34375 167.85938 144.89062L167.85938 145.0L166.625 145.0ZM164.6875 144.10938Q165.23438 144.10938 165.71875 143.82812Q166.21875 143.53125 166.4375 143.07812L166.4375 141.67188L165.53125 141.67188Q163.35938 141.67188 163.35938 142.9375Q163.35938 143.48438 163.73438 143.79688Q164.10938 144.10938 164.6875 144.10938ZM169.10938 141.51562Q169.10938 139.92188 169.84375 138.96875Q170.59375 138.0 171.8125 138.0Q173.01562 138.0 173.71875 138.82812L173.71875 135.25L174.90625 135.25L174.90625 145.0L173.8125 145.0L173.76562 144.26562Q173.0625 145.125 171.79688 145.125Q170.60938 145.125 169.85938 144.15625Q169.10938 143.17188 169.10938 141.59375L169.10938 141.51562ZM170.28125 141.64062Q170.28125 142.8125 170.76562 143.46875Q171.25 144.125 172.09375 144.125Q173.20312 144.125 173.71875 143.125L173.71875 139.96875Q173.20312 139.0 172.10938 139.0Q171.25 139.0 170.76562 139.67188Q170.28125 140.32812 170.28125 141.64062ZM177.67188 145.0L176.48438 145.0L176.48438 138.125L177.67188 138.125L177.67188 145.0ZM176.39062 136.3125Q176.39062 136.03125 176.5625 135.82812Q176.75 135.625 177.09375 135.625Q177.4375 135.625 177.60938 135.82812Q177.78125 136.03125 177.78125 136.3125Q177.78125 136.59375 177.60938 136.78125Q177.4375 136.96875 177.09375 136.96875Q176.75 136.96875 176.5625 136.78125Q176.39062 136.59375 176.39062 136.3125ZM183.625 144.32812Q182.9375 145.125 181.60938 145.125Q180.51562 145.125 179.9375 144.48438Q179.375 143.84375 179.35938 142.59375L179.35938 138.125L180.53125 138.125L180.53125 142.5625Q180.53125 144.125 181.8125 144.125Q183.15625 144.125 183.59375 143.125L183.59375 138.125L184.76562 138.125L184.76562 145.0L183.65625 145.0L183.625 144.32812ZM190.39062 143.17188Q190.39062 142.70312 190.03125 142.4375Q189.67188 142.17188 188.78125 141.98438Q187.89062 141.79688 187.35938 141.53125Q186.84375 141.26562 186.59375 140.90625Q186.34375 140.53125 186.34375 140.01562Q186.34375 139.17188 187.04688 138.59375Q187.76562 138.0 188.875 138.0Q190.04688 138.0 190.76562 138.60938Q191.5 139.20312 191.5 140.15625L190.3125 140.15625Q190.3125 139.67188 189.90625 139.32812Q189.5 138.96875 188.875 138.96875Q188.23438 138.96875 187.875 139.25Q187.51562 139.53125 187.51562 139.98438Q187.51562 140.40625 187.84375 140.625Q188.1875 140.82812 189.0625 141.03125Q189.9375 141.23438 190.48438 141.51562Q191.03125 141.78125 191.29688 142.17188Q191.5625 142.54688 191.5625 143.09375Q191.5625 144.01562 190.82812 144.57812Q190.09375 145.125 188.92188 145.125Q188.09375 145.125 187.45312 144.84375Q186.82812 144.54688 186.46875 144.03125Q186.10938 143.5 186.10938 142.89062L187.28125 142.89062Q187.3125 143.46875 187.75 143.82812Q188.1875 144.17188 188.92188 144.17188Q189.57812 144.17188 189.98438 143.90625Q190.39062 143.625 190.39062 143.17188Z" fill-rule="nonzero"/><path stroke="#eeeeee" stroke-width="1.0" stroke-linecap="butt" clip-path="url(#id_0)" d="M44.5 152.5L210.5 152.5L210.5 176.5L44.5 176.5Z" fill-rule="nonzero"/><path fill="#3c4043" clip-path="url(#id_0)" d="M56.953125 160.76562L53.984375 160.76562L53.984375 169.0L52.78125 169.0L52.78125 160.76562L49.8125 160.76562L49.8125 159.75L56.953125 159.75L56.953125 160.76562ZM62.625 168.32812Q61.9375 169.125 60.609375 169.125Q59.515625 169.125 58.9375 168.48438Q58.375 167.84375 58.359375 166.59375L58.359375 162.125L59.53125 162.125L59.53125 166.5625Q59.53125 168.125 60.8125 168.125Q62.15625 168.125 62.59375 167.125L62.59375 162.125L63.765625 162.125L63.765625 169.0L62.65625 169.0L62.625 168.32812ZM68.703125 163.1875Q68.4375 163.14062 68.125 163.14062Q66.96875 163.14062 66.5625 164.125L66.5625 169.0L65.390625 169.0L65.390625 162.125L66.53125 162.125L66.546875 162.92188Q67.125 162.0 68.1875 162.0Q68.53125 162.0 68.703125 162.09375L68.703125 163.1875ZM70.5 162.125L70.53125 163.0Q71.328125 162.0 72.59375 162.0Q74.765625 162.0 74.796875 164.46875L74.796875 169.0L73.609375 169.0L73.609375 164.45312Q73.609375 163.71875 73.265625 163.35938Q72.9375 163.0 72.234375 163.0Q71.671875 163.0 71.234375 163.3125Q70.796875 163.60938 70.5625 164.10938L70.5625 169.0L69.390625 169.0L69.390625 162.125L70.5 162.125ZM77.671875 169.0L76.484375 169.0L76.484375 162.125L77.671875 162.125L77.671875 169.0ZM76.390625 160.3125Q76.390625 160.03125 76.5625 159.82812Q76.75 159.625 77.09375 159.625Q77.4375 159.625 77.609375 159.82812Q77.78125 160.03125 77.78125 160.3125Q77.78125 160.59375 77.609375 160.78125Q77.4375 160.96875 77.09375 160.96875Q76.75 160.96875 76.5625 160.78125Q76.390625 160.59375 76.390625 160.3125ZM80.5 162.125L80.53125 163.0Q81.328125 162.0 82.59375 162.0Q84.765625 162.0 84.796875 164.46875L84.796875 169.0L83.609375 169.0L83.609375 164.45312Q83.609375 163.71875 83.265625 163.35938Q82.9375 163.0 82.234375 163.0Q81.671875 163.0 81.234375 163.3125Q80.796875 163.60938 80.5625 164.10938L80.5625 169.0L79.390625 169.0L79.390625 162.125L80.5 162.125ZM86.109375 165.51562Q86.109375 163.90625 86.84375 162.95312Q87.59375 162.0 88.8125 162.0Q90.078125 162.0 90.78125 162.89062L90.84375 162.125L91.90625 162.125L91.90625 168.82812Q91.90625 170.17188 91.109375 170.9375Q90.328125 171.70312 89.0 171.70312Q88.25 171.70312 87.53125 171.375Q86.828125 171.0625 86.453125 170.51562L87.0625 169.8125Q87.828125 170.75 88.921875 170.75Q89.765625 170.75 90.25 170.26562Q90.734375 169.78125 90.734375 168.90625L90.734375 168.3125Q90.03125 169.125 88.8125 169.125Q87.59375 169.125 86.84375 168.15625Q86.109375 167.1875 86.109375 165.51562ZM87.296875 165.64062Q87.296875 166.79688 87.765625 167.46875Q88.25 168.125 89.09375 168.125Q90.203125 168.125 90.734375 167.125L90.734375 163.98438Q90.1875 163.0 89.109375 163.0Q88.25 163.0 87.765625 163.67188Q87.296875 164.32812 87.296875 165.64062ZM99.703125 163.1875Q99.4375 163.14062 99.125 163.14062Q97.96875 163.14062 97.5625 164.125L97.5625 169.0L96.390625 169.0L96.390625 162.125L97.53125 162.125L97.546875 162.92188Q98.125 162.0 99.1875 162.0Q99.53125 162.0 99.703125 162.09375L99.703125 163.1875ZM101.671875 169.0L100.484375 169.0L100.484375 162.125L101.671875 162.125L101.671875 169.0ZM100.390625 160.3125Q100.390625 160.03125 100.5625 159.82812Q100.75 159.625 101.09375 159.625Q101.4375 159.625 101.609375 159.82812Q101.78125 160.03125 101.78125 160.3125Q101.78125 160.59375 101.609375 160.78125Q101.4375 160.96875 101.09375 160.96875Q100.75 160.96875 100.5625 160.78125Q100.390625 160.59375 100.390625 160.3125ZM103.109375 165.51562Q103.109375 163.90625 103.84375 162.95312Q104.59375 162.0 105.8125 162.0Q107.078125 162.0 107.78125 162.89062L107.84375 162.125L108.90625 162.125L108.90625 168.82812Q108.90625 170.17188 108.109375 170.9375Q107.328125 171.70312 106.0 171.70312Q105.25 171.70312 104.53125 171.375Q103.828125 171.0625 103.453125 170.51562L104.0625 169.8125Q104.828125 170.75 105.921875 170.75Q106.765625 170.75 107.25 170.26562Q107.734375 169.78125 107.734375 168.90625L107.734375 168.3125Q107.03125 169.125 105.8125 169.125Q104.59375 169.125 103.84375 168.15625Q103.109375 167.1875 103.109375 165.51562ZM104.296875 165.64062Q104.296875 166.79688 104.765625 167.46875Q105.25 168.125 106.09375 168.125Q107.203125 168.125 107.734375 167.125L107.734375 163.98438Q107.1875 163.0 106.109375 163.0Q105.25 163.0 104.765625 163.67188Q104.296875 164.32812 104.296875 165.64062ZM111.5625 162.96875Q112.34375 162.0 113.59375 162.0Q115.765625 162.0 115.796875 164.46875L115.796875 169.0L114.609375 169.0L114.609375 164.45312Q114.609375 163.71875 114.265625 163.35938Q113.9375 163.0 113.234375 163.0Q112.671875 163.0 112.234375 163.3125Q111.796875 163.60938 111.5625 164.10938L111.5625 169.0L110.390625 169.0L110.390625 159.25L111.5625 159.25L111.5625 162.96875ZM118.984375 160.46875L118.984375 162.125L120.265625 162.125L120.265625 163.04688L118.984375 163.04688L118.984375 167.29688Q118.984375 167.71875 119.15625 167.92188Q119.328125 168.125 119.734375 168.125Q119.9375 168.125 120.296875 168.04688L120.296875 169.0Q119.828125 169.125 119.390625 169.125Q118.609375 169.125 118.203125 168.65625Q117.8125 168.17188 117.8125 167.29688L117.8125 163.04688L116.5625 163.04688L116.5625 162.125L117.8125 162.125L117.8125 160.46875L118.984375 160.46875ZM121.34375 170.84375L120.6875 170.39062Q121.28125 169.54688 121.3125 168.67188L121.3125 167.60938L122.453125 167.60938L122.453125 168.53125Q122.453125 169.17188 122.140625 169.8125Q121.828125 170.45312 121.34375 170.84375ZM131.39062 167.17188Q131.39062 166.70312 131.03125 166.4375Q130.67188 166.17188 129.78125 165.98438Q128.89062 165.79688 128.35938 165.53125Q127.84375 165.26562 127.59375 164.90625Q127.34375 164.53125 127.34375 164.01562Q127.34375 163.17188 128.04688 162.59375Q128.76562 162.0 129.875 162.0Q131.04688 162.0 131.76562 162.60938Q132.5 163.20312 132.5 164.15625L131.3125 164.15625Q131.3125 163.67188 130.90625 163.32812Q130.5 162.96875 129.875 162.96875Q129.23438 162.96875 128.875 163.25Q128.51562 163.53125 128.51562 163.98438Q128.51562 164.40625 128.84375 164.625Q129.1875 164.82812 130.0625 165.03125Q130.9375 165.23438 131.48438 165.51562Q132.03125 165.78125 132.29688 166.17188Q132.5625 166.54688 132.5625 167.09375Q132.5625 168.01562 131.82812 168.57812Q131.09375 169.125 129.92188 169.125Q129.09375 169.125 128.45312 168.84375Q127.828125 168.54688 127.46875 168.03125Q127.109375 167.5 127.109375 166.89062L128.28125 166.89062Q128.3125 167.46875 128.75 167.82812Q129.1875 168.17188 129.92188 168.17188Q130.57812 168.17188 130.98438 167.90625Q131.39062 167.625 131.39062 167.17188ZM135.5 162.125L135.53125 162.89062Q136.28125 162.0 137.5625 162.0Q139.0 162.0 139.53125 163.10938Q139.85938 162.60938 140.40625 162.3125Q140.96875 162.0 141.71875 162.0Q143.96875 162.0 144.01562 164.39062L144.01562 169.0L142.84375 169.0L142.84375 164.46875Q142.84375 163.73438 142.5 163.375Q142.17188 163.0 141.375 163.0Q140.71875 163.0 140.28125 163.39062Q139.85938 163.78125 139.78125 164.4375L139.78125 169.0L138.60938 169.0L138.60938 164.5Q138.60938 163.0 137.14062 163.0Q135.98438 163.0 135.5625 163.98438L135.5625 169.0L134.375 169.0L134.375 162.125L135.5 162.125ZM149.625 169.0Q149.53125 168.79688 149.46875 168.28125Q148.64062 169.125 147.51562 169.125Q146.5 169.125 145.84375 168.5625Q145.1875 167.98438 145.1875 167.09375Q145.1875 166.01562 146.0 165.42188Q146.82812 164.82812 148.29688 164.82812L149.4375 164.82812L149.4375 164.29688Q149.4375 163.6875 149.0625 163.32812Q148.70312 162.95312 147.98438 162.95312Q147.35938 162.95312 146.9375 163.26562Q146.51562 163.57812 146.51562 164.03125L145.32812 164.03125Q145.32812 163.51562 145.6875 163.04688Q146.0625 162.5625 146.6875 162.28125Q147.3125 162.0 148.0625 162.0Q149.25 162.0 149.92188 162.59375Q150.59375 163.1875 150.625 164.23438L150.625 167.39062Q150.625 168.34375 150.85938 168.89062L150.85938 169.0L149.625 169.0ZM147.6875 168.10938Q148.23438 168.10938 148.71875 167.82812Q149.21875 167.53125 149.4375 167.07812L149.4375 165.67188L148.53125 165.67188Q146.35938 165.67188 146.35938 166.9375Q146.35938 167.48438 146.73438 167.79688Q147.10938 168.10938 147.6875 168.10938ZM153.67188 169.0L152.48438 169.0L152.48438 159.25L153.67188 159.25L153.67188 169.0ZM156.67188 169.0L155.48438 169.0L155.48438 159.25L156.67188 159.25L156.67188 169.0ZM164.70312 163.1875Q164.4375 163.14062 164.125 163.14062Q162.96875 163.14062 162.5625 164.125L162.5625 169.0L161.39062 169.0L161.39062 162.125L162.53125 162.125L162.54688 162.92188Q163.125 162.0 164.1875 162.0Q164.53125 162.0 164.70312 162.09375L164.70312 163.1875ZM169.625 169.0Q169.53125 168.79688 169.46875 168.28125Q168.64062 169.125 167.51562 169.125Q166.5 169.125 165.84375 168.5625Q165.1875 167.98438 165.1875 167.09375Q165.1875 166.01562 166.0 165.42188Q166.82812 164.82812 168.29688 164.82812L169.4375 164.82812L169.4375 164.29688Q169.4375 163.6875 169.0625 163.32812Q168.70312 162.95312 167.98438 162.95312Q167.35938 162.95312 166.9375 163.26562Q166.51562 163.57812 166.51562 164.03125L165.32812 164.03125Q165.32812 163.51562 165.6875 163.04688Q166.0625 162.5625 166.6875 162.28125Q167.3125 162.0 168.0625 162.0Q169.25 162.0 169.92188 162.59375Q170.59375 163.1875 170.625 164.23438L170.625 167.39062Q170.625 168.34375 170.85938 168.89062L170.85938 169.0L169.625 169.0ZM167.6875 168.10938Q168.23438 168.10938 168.71875 167.82812Q169.21875 167.53125 169.4375 167.07812L169.4375 165.67188L168.53125 165.67188Q166.35938 165.67188 166.35938 166.9375Q166.35938 167.48438 166.73438 167.79688Q167.10938 168.10938 167.6875 168.10938ZM172.10938 165.51562Q172.10938 163.92188 172.84375 162.96875Q173.59375 162.0 174.8125 162.0Q176.01562 162.0 176.71875 162.82812L176.71875 159.25L177.90625 159.25L177.90625 169.0L176.8125 169.0L176.76562 168.26562Q176.0625 169.125 174.79688 169.125Q173.60938 169.125 172.85938 168.15625Q172.10938 167.17188 172.10938 165.59375L172.10938 165.51562ZM173.28125 165.64062Q173.28125 166.8125 173.76562 167.46875Q174.25 168.125 175.09375 168.125Q176.20312 168.125 176.71875 167.125L176.71875 163.96875Q176.20312 163.0 175.10938 163.0Q174.25 163.0 173.76562 163.67188Q173.28125 164.32812 173.28125 165.64062ZM180.67188 169.0L179.48438 169.0L179.48438 162.125L180.67188 162.125L180.67188 169.0ZM179.39062 160.3125Q179.39062 160.03125 179.5625 159.82812Q179.75 159.625 180.09375 159.625Q180.4375 159.625 180.60938 159.82812Q180.78125 160.03125 180.78125 160.3125Q180.78125 160.59375 180.60938 160.78125Q180.4375 160.96875 180.09375 160.96875Q179.75 160.96875 179.5625 160.78125Q179.39062 160.59375 179.39062 160.3125ZM186.625 168.32812Q185.9375 169.125 184.60938 169.125Q183.51562 169.125 182.9375 168.48438Q182.375 167.84375 182.35938 166.59375L182.35938 162.125L183.53125 162.125L183.53125 166.5625Q183.53125 168.125 184.8125 168.125Q186.15625 168.125 186.59375 167.125L186.59375 162.125L187.76562 162.125L187.76562 169.0L186.65625 169.0L186.625 168.32812ZM193.39062 167.17188Q193.39062 166.70312 193.03125 166.4375Q192.67188 166.17188 191.78125 165.98438Q190.89062 165.79688 190.35938 165.53125Q189.84375 165.26562 189.59375 164.90625Q189.34375 164.53125 189.34375 164.01562Q189.34375 163.17188 190.04688 162.59375Q190.76562 162.0 191.875 162.0Q193.04688 162.0 193.76562 162.60938Q194.5 163.20312 194.5 164.15625L193.3125 164.15625Q193.3125 163.67188 192.90625 163.32812Q192.5 162.96875 191.875 162.96875Q191.23438 162.96875 190.875 163.25Q190.51562 163.53125 190.51562 163.98438Q190.51562 164.40625 190.84375 164.625Q191.1875 164.82812 192.0625 165.03125Q192.9375 165.23438 193.48438 165.51562Q194.03125 165.78125 194.29688 166.17188Q194.5625 166.54688 194.5625 167.09375Q194.5625 168.01562 193.82812 168.57812Q193.09375 169.125 191.92188 169.125Q191.09375 169.125 190.45312 168.84375Q189.82812 168.54688 189.46875 168.03125Q189.10938 167.5 189.10938 166.89062L190.28125 166.89062Q190.3125 167.46875 190.75 167.82812Q191.1875 168.17188 191.92188 168.17188Q192.57812 168.17188 192.98438 167.90625Q193.39062 167.625 193.39062 167.17188Z" fill-rule="nonzero"/><path fill="#ffffff" clip-path="url(#id_0)" d="M0.5 0.5L210.5 0.5L210.5 32.5L0.5 32.5L0.5 0.5Z" fill-rule="nonzero"/><path stroke="#d9d9d9" stroke-width="1.0" stroke-linecap="butt" clip-path="url(#id_0)" d="M0.5 32.5L210.5 32.5Z" fill-rule="nonzero"/><path stroke="#eeeeee" stroke-width="1.0" stroke-linecap="butt" clip-path="url(#id_0)" d="M44.5 0.5L44.5 32.5Z" fill-rule="nonzero"/><path fill="#80868b" clip-path="url(#id_0)" d="M9.140625 11.75L12.171875 19.296875L15.1875 11.75L16.765625 11.75L16.765625 21.0L15.546875 21.0L15.546875 17.40625L15.671875 13.515625L12.625 21.0L11.703125 21.0L8.671875 13.53125L8.796875 17.40625L8.796875 21.0L7.578125 21.0L7.578125 11.75L9.140625 11.75ZM18.078125 17.5Q18.078125 16.5 18.46875 15.6875Q18.875 14.875 19.578125 14.4375Q20.28125 14.0 21.1875 14.0Q22.59375 14.0 23.453125 14.984375Q24.328125 15.953125 24.328125 17.5625L24.328125 17.640625Q24.328125 18.640625 23.9375 19.4375Q23.5625 20.234375 22.84375 20.6875Q22.140625 21.125 21.203125 21.125Q19.8125 21.125 18.9375 20.15625Q18.078125 19.1875 18.078125 17.578125L18.078125 17.5ZM19.265625 17.640625Q19.265625 18.78125 19.78125 19.484375Q20.3125 20.171875 21.203125 20.171875Q22.109375 20.171875 22.625 19.46875Q23.15625 18.765625 23.15625 17.5Q23.15625 16.375 22.609375 15.671875Q22.078125 14.96875 21.1875 14.96875Q20.328125 14.96875 19.796875 15.671875Q19.265625 16.359375 19.265625 17.640625ZM25.109375 17.515625Q25.109375 15.921875 25.84375 14.96875Q26.59375 14.0 27.8125 14.0Q29.015625 14.0 29.71875 14.828125L29.71875 11.25L30.90625 11.25L30.90625 21.0L29.8125 21.0L29.765625 20.265625Q29.0625 21.125 27.796875 21.125Q26.609375 21.125 25.859375 20.15625Q25.109375 19.171875 25.109375 17.59375L25.109375 17.515625ZM26.28125 17.640625Q26.28125 18.8125 26.765625 19.46875Q27.25 20.125 28.09375 20.125Q29.203125 20.125 29.71875 19.125L29.71875 15.96875Q29.203125 15.0 28.109375 15.0Q27.25 15.0 26.765625 15.671875Q26.28125 16.328125 26.28125 17.640625ZM35.234375 21.125Q33.84375 21.125 32.96875 20.21875Q32.09375 19.296875 32.09375 17.75L32.09375 17.546875Q32.09375 16.515625 32.484375 15.71875Q32.875 14.90625 33.578125 14.453125Q34.28125 14.0 35.09375 14.0Q36.4375 14.0 37.171875 14.890625Q37.921875 15.765625 37.921875 17.40625L37.921875 17.90625L33.265625 17.90625Q33.296875 18.921875 33.859375 19.546875Q34.421875 20.171875 35.296875 20.171875Q35.921875 20.171875 36.34375 19.921875Q36.78125 19.65625 37.109375 19.234375L37.828125 19.796875Q36.96875 21.125 35.234375 21.125ZM35.09375 14.96875Q34.375 14.96875 33.890625 15.484375Q33.421875 16.0 33.296875 16.9375L36.75 16.9375L36.75 16.84375Q36.6875 15.953125 36.25 15.46875Q35.828125 14.96875 35.09375 14.96875Z" fill-rule="nonzero"/><path stroke="#eeeeee" stroke-width="1.0" stroke-linecap="butt" clip-path="url(#id_0)" d="M210.5 0.5L210.5 32.5Z" fill-rule="nonzero"/><path fill="#80868b" clip-path="url(#id_0)" d="M110.640625 11.75L113.671875 19.296875L116.6875 11.75L118.265625 11.75L118.265625 21.0L117.046875 21.0L117.046875 17.40625L117.171875 13.515625L114.125 21.0L113.203125 21.0L110.171875 13.53125L110.296875 17.40625L110.296875 21.0L109.078125 21.0L109.078125 11.75L110.640625 11.75ZM119.578125 17.5Q119.578125 16.5 119.96875 15.6875Q120.375 14.875 121.078125 14.4375Q121.78125 14.0 122.6875 14.0Q124.09375 14.0 124.953125 14.984375Q125.828125 15.953125 125.828125 17.5625L125.828125 17.640625Q125.828125 18.640625 125.4375 19.4375Q125.0625 20.234375 124.34375 20.6875Q123.640625 21.125 122.703125 21.125Q121.3125 21.125 120.4375 20.15625Q119.578125 19.1875 119.578125 17.578125L119.578125 17.5ZM120.765625 17.640625Q120.765625 18.78125 121.28125 19.484375Q121.8125 20.171875 122.703125 20.171875Q123.609375 20.171875 124.125 19.46875Q124.65625 18.765625 124.65625 17.5Q124.65625 16.375 124.109375 15.671875Q123.578125 14.96875 122.6875 14.96875Q121.828125 14.96875 121.296875 15.671875Q120.765625 16.359375 120.765625 17.640625ZM128.48438 12.46875L128.48438 14.125L129.76562 14.125L129.76562 15.046875L128.48438 15.046875L128.48438 19.296875Q128.48438 19.71875 128.65625 19.921875Q128.82812 20.125 129.23438 20.125Q129.4375 20.125 129.79688 20.046875L129.79688 21.0Q129.32812 21.125 128.89062 21.125Q128.10938 21.125 127.703125 20.65625Q127.3125 20.171875 127.3125 19.296875L127.3125 15.046875L126.0625 15.046875L126.0625 14.125L127.3125 14.125L127.3125 12.46875L128.48438 12.46875ZM132.17188 21.0L130.98438 21.0L130.98438 14.125L132.17188 14.125L132.17188 21.0ZM130.89062 12.3125Q130.89062 12.03125 131.0625 11.828125Q131.25 11.625 131.59375 11.625Q131.9375 11.625 132.10938 11.828125Q132.28125 12.03125 132.28125 12.3125Q132.28125 12.59375 132.10938 12.78125Q131.9375 12.96875 131.59375 12.96875Q131.25 12.96875 131.0625 12.78125Q130.89062 12.59375 130.89062 12.3125ZM133.57812 17.5Q133.57812 16.5 133.96875 15.6875Q134.375 14.875 135.07812 14.4375Q135.78125 14.0 136.6875 14.0Q138.09375 14.0 138.95312 14.984375Q139.82812 15.953125 139.82812 17.5625L139.82812 17.640625Q139.82812 18.640625 139.4375 19.4375Q139.0625 20.234375 138.34375 20.6875Q137.64062 21.125 136.70312 21.125Q135.3125 21.125 134.4375 20.15625Q133.57812 19.1875 133.57812 17.578125L133.57812 17.5ZM134.76562 17.640625Q134.76562 18.78125 135.28125 19.484375Q135.8125 20.171875 136.70312 20.171875Q137.60938 20.171875 138.125 19.46875Q138.65625 18.765625 138.65625 17.5Q138.65625 16.375 138.10938 15.671875Q137.57812 14.96875 136.6875 14.96875Q135.82812 14.96875 135.29688 15.671875Q134.76562 16.359375 134.76562 17.640625ZM142.0 14.125L142.03125 15.0Q142.82812 14.0 144.09375 14.0Q146.26562 14.0 146.29688 16.46875L146.29688 21.0L145.10938 21.0L145.10938 16.453125Q145.10938 15.71875 144.76562 15.359375Q144.4375 15.0 143.73438 15.0Q143.17188 15.0 142.73438 15.3125Q142.29688 15.609375 142.0625 16.109375L142.0625 21.0L140.89062 21.0L140.89062 14.125L142.0 14.125Z" fill-rule="nonzero"/></svg>